<?xml version="1.0" encoding="utf-8"?>
<!-- Generator: Adobe Illustrator 21.0.0, SVG Export Plug-In . SVG Version: 6.00 Build 0)  -->
<svg version="1.1" id="Layer_1" xmlns="http://www.w3.org/2000/svg" xmlns:xlink="http://www.w3.org/1999/xlink" x="0px" y="0px"
	 viewBox="0 0 792 612" style="enable-background:new 0 0 792 612;" xml:space="preserve">
<path d="M259.7,231c26.1,0.4,51.5,1.6,75.4,4.3c-23.9-0.8-49.4-3.1-74.7-3.6C259.8,231.8,259.8,231.4,259.7,231z"/>
<path d="M237.2,242c-1,0.6-2.1,0.9-3.3,1C234.1,241.8,236.1,242.3,237.2,242z"/>
<path d="M543.3,247.3c-24,0.4-48.7,0-70.7,2C493,245.7,520.7,245.6,543.3,247.3z"/>
<path d="M274.7,268.5c-1.3,0.3,1.1,1.2,0,1.3c-1.3-0.5,0-3.8-2.3-3.3c0.1-0.7,1.6-0.1,2.3-0.4c1.9,3.5,2.8,9.8,1,14.3
	C275.4,277.5,277.1,271,274.7,268.5z"/>
<path d="M467.6,267.9c5.2,4.8,17.5,4.2,26.9,5.6c-1-0.1,2.2,0,0.4,0.4C486.2,273.4,469.8,273.4,467.6,267.9z"/>
<path d="M271.4,280.1c0.3,0,0.3,0.1,0.4,0.4c-0.7,28.2-7,55.4-5.3,86c-1.6-3-0.8-8.3-1.3-12.3c-0.7,7-1.4,15.5-0.6,22.9
	c-2.2-24.8,2.2-52.3,5-76.7C270.2,293.4,270.1,286.1,271.4,280.1z"/>
<path d="M314.5,282.5c0.6-0.9,0.2,1.9,0.4,2.7C314.3,286,314.6,283.2,314.5,282.5z"/>
<path d="M273.1,287.4c0,28.1-2.4,56.7-3.3,85C268.9,345,271.5,315.1,273.1,287.4z"/>
<path d="M464.2,288.1c0.5,10.2,1.3,23.4,0.4,32.9C463.8,310.7,464.5,298.9,464.2,288.1z"/>
<path d="M313.9,288.8c0.6-0.9,0.2,1.9,0.4,2.7C313.6,292.3,314,289.5,313.9,288.8z"/>
<path d="M515.7,353.2c14.2-0.7,29.2,0.6,43.2,1.3C544.9,355,529.8,353.7,515.7,353.2z"/>
<path d="M513.4,353.2c0.5,0.4,0.7,1.3,0.3,1.7C512.2,354.9,512.8,353.7,513.4,353.2z"/>
<path d="M319.8,365.1c0.2,6.4,9.2,12.1,15.6,8.3c1.5-0.9,2.5-2.7,2-5.3c1,0.5,0.5,2.6,0.6,4C332.9,378.4,318.6,375,319.8,365.1z"/>
<path d="M368.3,249.9c-0.6-1.9,1.1-4.5-0.4-6.7c-2.2,3.3-2.8,8-6,10.3c-0.6-1.1,1.2-2.5,1.3-4c-0.8-0.2-2.9,1.1-4.3,1.3
	c0,0.7,1.2,0.1,1.7,0.4c-2.6,1.5-7,1.2-11,1.3c0.3,1.6,3.8,0,4,1.7c-10.8-1-21.7-1.1-32.6-0.4c2-1.3,5.5-1.1,8.6-1.3
	c-6.3-2.2-15.4-1.4-16.9,5.3c-1.7,7.5-2,17.8-2.7,28.2c-1.2,19.5-2.8,38.9-3.6,57.8c1.3-20.9,5.1-44.3,6.7-66.7
	c0.6-9.4-2.1-21.3,5.3-24.2c-0.5,1.6-3.6,3.5-3.6,6.7c2.7-0.8,5.2-1.9,7.6-3.3c-0.8-0.9-2.2,0.5-3.6,0c4.5-1.6,7.1-1.2,11.9-2
	c-2.2,2.6-6.3,1.8-9,3.6c-2.3,1.6-2.3,3.8-4,6c-0.7,0.8,2-4.5,2.7-5.3c-2.6,0-3.8,1.5-6,2c-0.4,2.3-0.4,4.7,0,7c1-1.8,1-4.5,2-6.3
	c-4.4,27.9-6.5,61-9.6,92c4-18.1,4.9-41.3,7-60.8c-1.4,23.2-1.8,49.1-6,70.4c0.7-8.1,1.8-15.9,2.3-24.2c-2.3,8.4-2.2,19-4.3,27.6
	c-0.5-2.4,0.9-4.6,0-6.3c-1.8,0.9-2.2,5.7-4,7.6c-4.4,4.8-13.3,4-21.9,3.6c5,4,15,4,19.9,0c-0.8,1.4-2.8,1.7-3.6,3
	c4.1-0.1,6.9-6,8.3-5.6c1-0.1-1,2.6-1.3,3c-2.7,3-9,6.2-15.3,6.3c-6.6,0.1-15.2-3-16.9-8.6c3.9,5.9,13.9,9.3,23.2,6.7
	c-11.3-0.1-19.3-3.5-22.9-11.3c0.9,0.2,0.7,1.5,1.7,1.7c-3.3-8.4-0.9-20.2,0-31.9c1.3-16.2,2.4-32.6,3.6-48.8
	c0.6-8.5,2.5-17.3,1.7-24.2c-1.7-15.3-30-5.4-44.5-7.3c0.3,2.1,2.1,2.8,4.3,3c-6,1.1-8.1-4.4-10.3-8.3c0.4,12.2,17.6,10.3,31.2,10.3
	c-6-3.1-14.2-3.9-23.6-3.6c12.8-3.6,21.8,4.5,35.2,3.6c-1.4-3.1-6.3-2.7-10.3-2.3c5.9-3.2,11.3,1.4,14.6,4c-0.7,1.2-2.5-1.6-2,1
	c0.1,1.9-0.6-2.6-2.3-2c0.7,6.4,0.2,15.8-2,21.3c0.2-5.7,2.4-14,1-21.3c-2.3-1-5,0.2-7.6,0c0,0.4,0.6,0.3,1,0.4
	c-8.2,2.7-19.4,0.4-30.2,1c6.4-1.7,16.3,0.2,23.2-1c-8.1-0.2-19,0.1-26.9-1.3c1.1-0.8,3.6-0.1,5.3-0.4c-6.4-1.6-11.7-13.1-3-15.9
	c0,1.6-4.8,2.8-2.7,5.6c2.8-0.4,3.6-2.7,6-3.3c0.2,0.7-0.9,1,0.4,1c33-1.5,66.5-2.3,99.3-4c-30.5,0.2-64.3,0.1-94.6,1.7
	c22.8-4.3,50.2-1.4,77.7-2.7c13.8-0.6,23.1,0.9,35.2,0.4c4-0.2,8.3-0.4,11,1c0.3-3.1-3.8-2.5-7.6-2.7c-37.5-1.7-86.7-1.8-121.1,1.3
	c38.8-4.1,83.2-4.1,124.5-3c0.1,0.7-0.5,0.6-1,0.6c0.4,0.7,2.3,0.1,3.3,0.4c-2-2.1-4.5-3.5-7.3-4.3c4.4-0.8,6.5,3.7,10.3,4.6
	c0.4-1.9-5.9-3.6-5.3-4.6c3.4,1.1,5.2,3.6,8.3,5C366.5,241.8,371.2,246.5,368.3,249.9z M365.6,245.2c2-0.9,1.2-4.5,0-5.6H364
	C364.3,241.8,366.1,242.4,365.6,245.2L365.6,245.2z M233.2,254.2c-2.2-0.9-1.4-4.7-3.3-6C228.4,250.1,231.6,254.4,233.2,254.2
	L233.2,254.2z M361.4,248.9c-7,0.1-19.3,1.6-27.6,1.3c-0.4,0-0.2,0.4,0.4,0.4c8.1,0.2,17.3,1.2,23.9-0.6c1.4,0.2,1.7-0.5,3-0.4
	C362.1,248.7,362.8,248.9,361.4,248.9L361.4,248.9z"/>
<path d="M551.2,248.9c0.2,1.5,4.2,4.5,4.6,7.3c0.3,2.1-0.9,4.2-1.3,6c-1,4.3-1.8,7.6-4,11c-1.8,2.7-4.8,4.8-6.7,8.3
	c-1.9,3.5-3.2,7.8-5,11.6c-5,10.5-11.3,22.9-15.6,33.5c7.2-15.1,15-29.6,22.6-44.5c-8.8,21.4-21.9,41.4-29.9,64.7
	c1.7-12.1,7.5-23.3,12.6-34.2s10.3-21.8,15.3-32.6c-10.3,17.3-19.5,35.3-27.6,53.8c-1.2,2.7-2.4,6.3-3.7,10
	c-1.7,5.1-5.7,13.6,1.3,14.6c7,1,19.4-1.5,27.6-1c-7.9-1.6-17.8,0.4-26.9-0.4c14.3-1.6,28.8-1.8,43.2-0.6c-4.1,0.8-9.6,0.1-14.3,0.4
	c2.8,1.1,7.2,0.5,10.6,1c0,0.9-2.3-0.3-2.3,0.6c2,1.2,4.1-0.2,6.3,0.6c3.3,1.2,6.5,9.5,3,11.3c0.3-0.9,2.2-3.6,0.3-5.3
	c-1.1,5.5-9.9,4-17.9,4c-23.7,0-49.4,1.1-70-1c2.7,2.7,8.6,2.7,14.3,3c7.9,0.4,16.8,0,24.6,0.4c0.4,0.6-3.2,0.1-4,0.6
	c13.2,1.3,29.2,1,44.5,1c1.9,0,6.7,0.5,7,0.4c-1.7,0.9-4.8,0.4-4.6,0.4c-0.5,0-2.8-0.1-6.7,0c-8.2,0.4-15,0.8-24.6,1
	c3.9,1.6,13.2-0.1,17.3,1c-19.2,0.5-39.1,0.3-58.1,1c-0.8-0.2-2.4,0.4-2.7-0.4h2.7c1.7,0.1,3.4,0,5-0.4c-4.7-0.7-10.5-0.4-15-1.3
	c16.4,0.1,35.3,0.8,51.8-0.6c-18.6-2.3-42.7,0.9-58.1-4.6c1.3-3-1.7-4.5-1.3-7.6c-0.6,0.6-1,1.4-1,2.3c2.6-15,10.8-28.1,16.6-41.8
	c-5.5,11.7-11.7,22.5-16.3,35.2c-0.3-4.2,2.5-7.8,4-11.6c3-7.6,5.8-15.3,9-22.9c5.1-12,8.8-25.2,16.6-35.9c-1.5,4.2-5.4,9-7,14.3
	c1.4-2.1,2.6-4.3,3.6-6.7c0.7,0.1,0,1.4-0.4,1.7c5.5-8.8,11-20.4,16.9-29.9c-6.7-4.6-20-0.7-30.2-1.7c4.3,3.1,11.1,3.8,16.9,5.3
	c-7.6,0.1-14.8-3.2-20.9-5.6c-0.7-0.1,0,0.9,0.4,1c-1.2,0.5-1.6-2.6-3.3-2.7c0.1,9.3,12.8,6,20.6,7.6c-8.6,0-22.2,2.3-21.6-8
	c-0.6-1.6-2.9-3-1.7-5.3c0.3,0.8,0,3.5,2,3.6c1.3-0.6-0.2-2.3,0.6-3.6c1.7-3,5.6-3.9,9.6-4.6c-0.5,0.6-1.9,0.5-2.3,1.3
	c20.2-0.9,36.7-0.9,53.4-2.7c1.3-0.1,7.2-0.4,3,0.4c-12.5,2-30.1,1.5-43.5,3c10.2,0.8,20.9,0.1,31.5-0.4c9.5-0.4,21-1.8,27.9,0.6
	c0.2-0.8-0.6-0.7-0.3-1.7c2,0.5,1.5,3.6,3.3,4.3v-3.6c-1-1.3-3.7-1-6-1c0.2-1.7,3.3-0.7,5-1C552.3,250.5,551.3,250.2,551.2,248.9z
	 M511.1,343.2c-0.9,3-2.2,5.6-2,9.6c0,0.4,0.4,0.2,0.6,0C509.7,349.3,511.5,346,511.1,343.2z M483.8,255.9c1,0,5.1-0.4,3.6-0.6
	c-5.7,0-14.1-2.3-16.3,2.3c0.2,1.1-0.5,3.2,0.6,3.3C471.7,254.7,478.2,256.3,483.8,255.9z M554.2,260.2c0.7-1.3,1.2-4.5-0.3-5.3
	C554.4,257,552.8,259.2,554.2,260.2z M548.6,269.8c1.9-3.4,5.4-8.1,2.7-11.9c-4.4,12.3-12.6,22.5-16.3,34.5c3.1-5.7,5.8-11.6,9-17.3
	c0,2.1-1.9,4.1-1.7,5.3C544.1,277.3,546.5,273.6,548.6,269.8z M549.6,269.8c1-2.2,3.4-4.8,3-7.3C551.8,265,549.4,267.6,549.6,269.8
	L549.6,269.8z M506.7,271.5c-12.6,22.1-23.2,48.1-33.2,71.7c10.5-21.6,21.3-44.4,31.5-65.7c1.3-2.8,3.9-6.5,2.7-10
	C507.5,269.3,504.7,272.3,506.7,271.5z M492.5,297.7c2.6-5.6,6.4-11.8,8.3-16.9C497.9,286.1,494,292.2,492.5,297.7L492.5,297.7z
	 M545.9,278.2c1.7-2.5,4.3-5.8,4.6-8.6C548.8,272,545.5,274.7,545.9,278.2L545.9,278.2z M523.3,317.3c1.1-2.7,4.4-8.2,4.3-9.3v0.4
	C526.1,310.8,523.4,315.6,523.3,317.3L523.3,317.3z M473.9,335.6c3.5-8.1,7.8-15.4,10.6-24.2C480.1,318.4,476.3,327.8,473.9,335.6
	L473.9,335.6z M481.9,321c0.9-2.2,3.3-6.4,3-7.6C483.8,315.5,481.7,320,481.9,321L481.9,321z M513.4,339.2c-0.1,0.1,2.4-4.4,2-5.6
	C514.7,335.5,513.6,337,513.4,339.2L513.4,339.2z M472.5,369.1c-1.4-1.9-4.6-5.4-4.6-10c0-1.5,1.4-6.4,0.6-5.3
	C465.5,358.6,464.8,369.1,472.5,369.1z M541.2,358.8h-6c-1.8,0.2-4.4-0.4-5.6,0.4C533.4,358.9,538,359.6,541.2,358.8L541.2,358.8z"
	/>
<path d="M438.4,376.1c-4.6-2.2-12.9-0.5-15.3-5c1,0.3,3.1,2.5,5.6,2.3c0.4-0.9-1.6-2.2-2-3.3c0.1-0.6,1.1,0.4,1-1c0-1-1.6-0.4-2-1
	c-0.7,0-0.1,1.2-0.4,1.7c-1.2-0.5-0.1-3.2-1.7-3.3c-1,0,0.4,2.5-1,2c-1.7-8.7-0.5-20.3-2-29.2c0.6,0.4,0.2,2,0.6,2.7
	c0.9-7.5,0.7-16.4,2.7-22.9c-1.4,11.9-1.6,27.9,0.4,40.5c0.4,2.9,0.3,6.7,2.7,7.6c0.7-9.5-1.5-21.7-1.3-32.9c-0.3-0.9-0.7,1-1.3,0
	c0.5-5.5,4.2-16.4-1-19.6c-6.8,7.8-13,16.2-15.9,27.9c-0.4-0.1-0.3-0.8-0.4-1.3c-4.4,7.8-7.9,16.7-11.9,24.9c-4.4-1-6.2,5.5-9.3,8
	c-1.5-0.4-3.1-0.4-4.6,0c-0.2,0.6,1.1,2.4,2,3c-2-2-7.4-6-9.6-9.6c-0.8-1.3,0.8,0,0.6,0.4c0.4-1.3-5.8-10-7-11.9
	c-6.9-12-13.5-26.9-19.9-37.8c-4.2,2-7.5,11-8,17.9c-0.1,2.8,0.4,5.7,0.4,8.6c-0.4,7.2-2,12.7-2.7,19.9c-0.4,5.4-6.3,7.8-12.6,7
	c-1.2-0.1-2.6-1.4-2.3-4c0.9,1.3,1.2,3.3,3.6,3c-1.8-2.4-2.5-5.4-2-8.3c0.4-2.6,0.2-5.8,0.4-8.6c0.7-16,1.3-35.4,1.3-51.8
	c-1.9,19.9-1.5,42.1-4,61.4c-1.1-1,0-3.1,0-4.6c0.7-16.3,1.4-36.8,2.3-54.5c-2.5,19.1-5.2,37.9-5.6,59.1c-1.6-10.6,1-22.6,1.7-33.2
	c-0.3-0.7-0.8-1.4-1.3-2c-1.9-17.3,1.6-34.1,4.6-48.5c-1.5,14.4-6.8,32.6-3.6,49.5c3.3-17.8,4.2-37.8,8-55.1c0.7,0,0.1,1.4,0.4,2
	c0.5-0.5,0.7-1.3,0.6-2c-1.6,9.8-2.2,23.4-2,36.2c2.8-15.8-2.3-39.5,11-44.8c-1.9-0.6-4.9,0.6-5.6,2.3c-0.9-1.5-2.7,0.4-3.3,1.3
	c1.3-4.8,9.8-5.3,16.3-6c-8.8-3.6-18.9,0.7-22.5,9.5c-0.3,0.8-0.6,1.6-0.8,2.4c1.7-6.6,5.9-13.6,14.3-14.6c0.9,0.2-0.2-1.6,0.6-1.3
	c6.2-0.9,11.1,2.4,16.3,3.6c0.4-2.1,4.4,1.4,6,2.3c0.5-0.8-1.2-2.1-1.3-3.3c2.4,2.8,4,6.5,6,9.6c-1.4-2-3.2-3.7-5.3-5
	c3.4,9.2,10.9,17,15.6,25.9c-0.1,0.8-0.9-0.4-1-0.6c3.3,8,9.1,16.4,12.3,25.5c-6.7-11.8-12.3-24.7-19.6-35.9
	c2.3,5.7,5.5,11.6,8.6,17.9c3,5.9,5.4,13.3,9,17.6c0.6,0.7,1.9,1.2,2.3,1.7c2.7,2.4,4.2,5.7,9,4.6c8.2-17.4,16.8-34.6,24.9-52.1
	c0,3.2-2.6,6.5-3.6,9.6c2.7-2.5,5.6-7.7,8.6-11c-0.5,0.4-1.4,0.4-1.7,1c0.4-2.5,5-3.6,6.3-6.3c-1.4,0.5-2.7,1.5-3.6,2.7
	c3.5-7,11.6-11.4,21.3-10.3c6.2,0.7,12.5,5.7,14.3,11c0.1,0.2,0.4,1.1,0.4,1c0.4,4.4,2.3,10,2,14.3c-0.6,8.7-2.5,17.7-1.3,27.6
	c1.2-2.4,0.2-6.9,1-9.6c0.1-1.2-0.4-4.7,0.4-4.3v5c-1.1,8.7-0.2,16.8-0.6,24.9c-0.1,2.3-1.1,4.6-1.3,7c-0.4,6,0.4,12.6,0.4,18.6
	c-1.4-1.1,0-5-1-6.7c-1,4.7-0.8,11.7-0.4,16.9c0.4,0.5,1.6-1,1.7-2c1.5,2.7-3.8,3.7-1.7,6c-2.5,0.1-4.9,2.7-6,5.3
	c-0.6-0.2,0-0.6,0-1c-1.3,0-3.3,2-4.3,3.3c-7.3-0.4-15,7.1-23.2,4.6c-0.9-0.2-3.1-2.3-2.3-2.7c0.4,1.1,1.6,1.2,2.3,2
	C430.5,378.1,434.5,377.4,438.4,376.1z M434.1,260.2c3.1,0.3,4.6-1.7,7-2c9.5-1.2,15.5,7,19.6,12.3C459,260.2,443.8,253,434.1,260.2
	z M457.9,269.8c-2.4-6.5-8.7-10.8-16.6-10.6C449.9,259.8,453.4,265.3,457.9,269.8L457.9,269.8z M336.8,260.2
	c2.2-0.1,4.5,0.1,6.7,0.6C342.6,259.7,338.1,258.8,336.8,260.2z M430.1,262.2c1.1-1,2.9-1.3,3.6-2.7
	C432.2,260,430,261.3,430.1,262.2L430.1,262.2z M430.1,264.9c3.5-1.4,7.6-4.1,12.3-4c3.5,0.1,5.5,2.6,8.3,2.7
	C446.4,258.9,431.8,259.2,430.1,264.9L430.1,264.9z M440.7,262.5c2.1-0.1,3,1,5.3,0.6C445.6,261.8,441.6,261.2,440.7,262.5z
	 M436.1,263.5c-9.4,2.7-12.8,10.8-17.3,18.6c-6.9,12-15.2,25-18.9,37.8c5.8-7.3,10.6-16.9,15.8-26.9c4.4-8.3,9.2-21.8,16.3-26.9
	c1-0.8,5.1-2.3,4.3-2.7L436.1,263.5z M357.1,266.1c0-1.2-2-2.2-2.7-1.7C355.2,265.1,356.1,265.7,357.1,266.1L357.1,266.1z
	 M461.3,292.7c0.8-8.2,2.2-18.1-2.7-22.9C460.2,276.8,459.3,286.2,461.3,292.7L461.3,292.7z M421.5,274.7c-0.1-0.2-3.4,3.9-3,5.3
	C419.3,278.2,420.5,276.7,421.5,274.7L421.5,274.7z M411.5,290c0.7-2.4,3.3-4.7,3.3-6.7C413.7,285.5,411.3,287.9,411.5,290
	L411.5,290z M459.6,313.2c0.7-7.7,1.3-18.1-0.4-25.2C459.5,296.4,458.8,305.6,459.6,313.2L459.6,313.2z M395.2,322.5
	c3-4.4,5.4-9.2,7-14.3C399.6,312.8,397.4,317.8,395.2,322.5L395.2,322.5z M460.3,318.6c1.3-0.1,0.6-5.4,0.4-5
	C460.8,315.6,460,316.6,460.3,318.6L460.3,318.6z M419.7,317.3c0.8-0.7,1.5-1.6,2-2.7C420.5,314.8,419.5,316.8,419.7,317.3z
	 M410.7,326.3c-7.2,13.5-14.5,27.6-20.9,40.1c0.8-0.6,1.2-2.8,2.3-2c0,0.5-1.4,1.5,0,1.3c5.1-7.6,9.6-16.5,14-25.2
	c2.2-4.4,4.1-9.2,6-13.6c2-4.7,5-7.8,7.6-11.9C415.1,316.8,413,322.1,410.7,326.3L410.7,326.3z M357,329.3c-1.7-2.7-3.5-11.5-8-12.9
	c-5.7-1.9-9.3,3.5-10,8c-1.2,8-0.7,21.2-1,27.6c1.8-13.1-0.4-30.3,9.6-35.2c7.8,15.2,17.4,31.5,26.2,46.8
	c-5.1-12.8-13-24.6-18.2-36.2C355.9,328.1,356.4,328.7,357,329.3L357,329.3z M427.3,321.7c0.2-1.3-0.1-2.5-0.6-3.6
	C427.1,319.1,426,321.6,427.3,321.7L427.3,321.7z M460.5,324.7c-0.2-1.8,1-3.9,0-5.3C460.2,320.5,459.9,323.5,460.5,324.7
	L460.5,324.7z M389.2,326.7c1.3-0.7,3-1.2,4-2.3c-3.1-0.3-6.1-1.8-8.3-4C386,322.8,386.8,325.5,389.2,326.7L389.2,326.7z M397.5,326
	c0.8-1.7,3-3.9,2.7-5.6C399.3,322,396.9,323.9,397.5,326L397.5,326z M393.5,329c2.4-0.2,3.3-3.6,3-5.3c-1,1.6-2,3.4-2.9,5.2
	L393.5,329z M426.4,333.4c0.5,2,0.2,4.8,0.4,7.3c0.9-5.4,1-10.9,0.4-16.3c-0.5,2.6-0.1,6.2-0.6,8.9L426.4,333.4z M389.2,327.4
	c1,0.6,1.7,1.6,3.3,1.7c0.2-1,2.3-3.3,0.6-4C392.2,326.1,390.4,326.3,389.2,327.4L389.2,327.4z M424.4,366.1
	c-0.4-2.8-0.9-5.6-1.7-8.3C423.1,360.8,421.8,365.4,424.4,366.1z M456.3,364.8c1,0,2.3-1.5,1.3-2.3
	C457.3,363.4,456.4,363.6,456.3,364.8z M428.7,368.1c1.2-0.4,1.9,1.4,2.7,0.4c-1.2-0.6-1.7-1.9-2.7-2.7V368.1z M378.3,369.4
	c-0.4,3.2,4.4,5.5,6,2.7c1.7,1.1,4-2.6,5-4.3C386.9,369.7,381.6,372.6,378.3,369.4L378.3,369.4z M438,371.1c3.6,1.1,8.1,2,11-0.4
	c0.5,1.1-1.9,0.9-0.6,1.7c2.5-0.5,4.2-2.9,6.3-4.6C450.3,370.8,445,370.6,438,371.1z M429.1,372.4c3.1,1.8,11,1.8,15,0.6
	c-6-0.5-10.3-2.8-15.6-4C428.3,370.2,428.5,371.4,429.1,372.4L429.1,372.4z"/>
<path d="M341.1,346.9c-0.4,0-0.3,0.6-0.4,1c-0.6-7.6,1.7-15.1,2-22.9c0.8,11.6-1.4,26.7-0.6,39.5c0.2-2.1-0.5-3.2-0.4-5.3
	c-1.2,3.3-1,7.8-2,11.3c-0.4,0-0.2-0.4-0.4-0.6C340.8,363,341,355,341.1,346.9z"/>
<path d="M567.8,361.8c0.5-0.5,0.9,3.8-0.6,4.6C567.5,364.8,568.4,363.5,567.8,361.8z"/>
</svg>
