<?xml version="1.0" encoding="utf-8"?>
<!-- Generator: Adobe Illustrator 21.0.0, SVG Export Plug-In . SVG Version: 6.00 Build 0)  -->
<svg version="1.1" id="Layer_1" xmlns="http://www.w3.org/2000/svg" xmlns:xlink="http://www.w3.org/1999/xlink" x="0px" y="0px"
	 viewBox="0 0 265 110" style="enable-background:new 0 0 265 110;" xml:space="preserve">
<style type="text/css">
	.st0{clip-path:url(#SVGID_2_);}
	.st1{clip-path:url(#SVGID_4_);fill:#00D9B7;}
	.st2{clip-path:url(#SVGID_6_);}
	.st3{clip-path:url(#SVGID_8_);fill:#00D9B7;}
	.st4{clip-path:url(#SVGID_10_);}
	.st5{clip-path:url(#SVGID_12_);fill:#00D9B7;}
	.st6{clip-path:url(#SVGID_14_);}
	.st7{clip-path:url(#SVGID_16_);fill:#00D9B7;}
	.st8{clip-path:url(#SVGID_18_);}
	.st9{clip-path:url(#SVGID_20_);fill:#00D9B7;}
	.st10{clip-path:url(#SVGID_22_);}
	.st11{clip-path:url(#SVGID_24_);fill:#00D9B7;}
	.st12{clip-path:url(#SVGID_26_);}
	.st13{clip-path:url(#SVGID_28_);fill:#00D9B7;}
	.st14{clip-path:url(#SVGID_30_);}
	.st15{clip-path:url(#SVGID_32_);enable-background:new    ;}
	.st16{clip-path:url(#SVGID_34_);}
	.st17{clip-path:url(#SVGID_36_);}
	.st18{clip-path:url(#SVGID_38_);fill:#00D9B7;}
	.st19{clip-path:url(#SVGID_40_);}
	.st20{clip-path:url(#SVGID_42_);fill:#00D9B7;}
</style>
<g>
	<defs>
		<polygon id="SVGID_1_" points="1.7,95.3 1.7,84.6 16.2,84.6 16.2,90 18.1,91.9 25.1,91.9 27,90 27,81.4 25.5,80 8.7,80 2,73.4 
			2,52.9 10,44.9 33.5,44.9 41.3,52.7 41.3,63.4 26.9,63.4 26.9,58 24.9,56.1 18.3,56.1 16.5,57.9 16.5,66.4 17.9,67.8 34.8,67.8 
			41.5,74.4 41.5,95.2 33.5,103.1 9.6,103.1 		"/>
	</defs>
	<clipPath id="SVGID_2_">
		<use xlink:href="#SVGID_1_"  style="overflow:visible;"/>
	</clipPath>
	<g class="st0">
		<defs>
			<rect id="SVGID_3_" width="265" height="110"/>
		</defs>
		<clipPath id="SVGID_4_">
			<use xlink:href="#SVGID_3_"  style="overflow:visible;"/>
		</clipPath>
		<rect x="-3.3" y="39.9" class="st1" width="49.7" height="68.2"/>
	</g>
</g>
<g>
	<defs>
		<path id="SVGID_5_" d="M47.6,44.9h31.8l8.1,8.1v22.5l-8.1,8.1H62v19.5H47.6V44.9z M70.9,73.1L73,71V57.6l-2.1-2.1H62v17.6H70.9z"
			/>
	</defs>
	<clipPath id="SVGID_6_">
		<use xlink:href="#SVGID_5_"  style="overflow:visible;"/>
	</clipPath>
	<g class="st2">
		<defs>
			<rect id="SVGID_7_" width="265" height="110"/>
		</defs>
		<clipPath id="SVGID_8_">
			<use xlink:href="#SVGID_7_"  style="overflow:visible;"/>
		</clipPath>
		<rect x="42.6" y="39.9" class="st3" width="50" height="68.2"/>
	</g>
</g>
<g>
	<defs>
		<path id="SVGID_9_" d="M92,95V53l8.1-8.1H124l8.1,8.1v42l-8.1,8.1h-23.9L92,95z M115.4,91.8l2.4-2.3v-31l-2.4-2.3h-6.6l-2.3,2.3
			v31l2.3,2.3H115.4z"/>
	</defs>
	<clipPath id="SVGID_10_">
		<use xlink:href="#SVGID_9_"  style="overflow:visible;"/>
	</clipPath>
	<g class="st4">
		<defs>
			<rect id="SVGID_11_" width="265" height="110"/>
		</defs>
		<clipPath id="SVGID_12_">
			<use xlink:href="#SVGID_11_"  style="overflow:visible;"/>
		</clipPath>
		<rect x="87" y="39.9" class="st5" width="50.1" height="68.2"/>
	</g>
</g>
<g>
	<defs>
		<path id="SVGID_13_" d="M138.8,44.9h32.6l8,7.9v19.6l-6.5,6.5l7.5,24.1h-14.7l-6.6-22.3h-5.8v22.3h-14.5V44.9z M162.8,70.3l2.1-2
			V57.4l-2.1-2h-9.5v14.9H162.8z"/>
	</defs>
	<clipPath id="SVGID_14_">
		<use xlink:href="#SVGID_13_"  style="overflow:visible;"/>
	</clipPath>
	<g class="st6">
		<defs>
			<rect id="SVGID_15_" width="265" height="110"/>
		</defs>
		<clipPath id="SVGID_16_">
			<use xlink:href="#SVGID_15_"  style="overflow:visible;"/>
		</clipPath>
		<rect x="133.8" y="39.9" class="st7" width="51.6" height="68.2"/>
	</g>
</g>
<g>
	<defs>
		<polygon id="SVGID_17_" points="194.7,57.4 182.5,57.4 182.5,44.9 221.3,44.9 221.3,57.4 209.1,57.4 209.1,103.1 194.7,103.1 		
			"/>
	</defs>
	<clipPath id="SVGID_18_">
		<use xlink:href="#SVGID_17_"  style="overflow:visible;"/>
	</clipPath>
	<g class="st8">
		<defs>
			<rect id="SVGID_19_" width="265" height="110"/>
		</defs>
		<clipPath id="SVGID_20_">
			<use xlink:href="#SVGID_19_"  style="overflow:visible;"/>
		</clipPath>
		<rect x="177.5" y="39.9" class="st9" width="48.8" height="68.2"/>
	</g>
</g>
<g>
	<defs>
		<polygon id="SVGID_21_" points="232.8,44.9 224.8,52.9 224.8,73.4 231.5,80 248.3,80 249.8,81.4 249.8,90 247.9,91.9 240.9,91.9 
			239,90 239,84.6 224.5,84.6 224.5,95.3 232.4,103.1 256.3,103.1 264.3,95.2 264.3,74.4 257.6,67.8 240.7,67.8 239.3,66.4 
			239.3,57.9 241.1,56.1 247.7,56.1 249.7,58 249.7,63.4 264.1,63.4 264.1,52.7 256.3,44.9 		"/>
	</defs>
	<clipPath id="SVGID_22_">
		<use xlink:href="#SVGID_21_"  style="overflow:visible;"/>
	</clipPath>
	<g class="st10">
		<defs>
			<rect id="SVGID_23_" width="265" height="110"/>
		</defs>
		<clipPath id="SVGID_24_">
			<use xlink:href="#SVGID_23_"  style="overflow:visible;"/>
		</clipPath>
		<rect x="219.5" y="39.9" class="st11" width="49.7" height="68.2"/>
	</g>
</g>
<g>
	<defs>
		<path id="SVGID_25_" d="M53.7,10.9c0,0-2.2-0.3-3.8,2.7l-7.3,13.5L35,13.5c-1.5-2.7-3.5-2.6-3.5-2.6c-4.1,0-3.8,4.1-3.8,4.1h0
			v19.3h0c0,0.7,0.6,1.2,1.3,1.2c0.7,0,1.3-0.5,1.3-1.2h0v-9.2c0.1-0.9,0.3-2.2,1.3-2.2c0.9,0,1.2-0.1,2.3,1.6l4.7,8.5
			c0,0,1.2,2.3,1.8,2.3c0,0,0.6,0.3,1.9-2l1.7-3.2l0.1-0.1l0-0.1l2.9-5.3l0,0c0.9-1.4,1.2-1.7,2.1-1.6c0.7,0.1,0.9,0.9,1,1.7v8.8
			c0,1.2,1.4,2.1,3.2,2.1c1.7,0,3.2-1,3.2-2.1V13.8C56.5,13.8,56.5,10.9,53.7,10.9z M35.8,7c0-0.6-0.5-1-1-1H5.6v0c0,0,0,0,0,0
			c-0.6,0-1,0.5-1,1c0,0.6,0.5,1,1,1c0,0,0,0,0,0v0h7.9c0,0,2,0,2.4,1.8v23.1c0,1.4,1.7,2.6,3.9,2.6c2.2,0,3.9-1.2,3.9-2.6V10
			c0.3-1.9,2.4-1.9,2.4-1.9h8.6C35.3,8.1,35.8,7.6,35.8,7z M77.1,33.4C77.1,33.4,77.1,33.4,77.1,33.4L77.1,33.4h-8.3
			c-0.7,0-2.4-0.4-1.3-3.2l7.8-16.9l0,0c0,0,1.2-2.9-1.5-3v0h-0.2h-9.9h-3.3v0c0,0,0,0,0,0c-0.6,0-1,0.5-1,1c0,0.6,0.5,1,1,1
			c0,0,0,0,0,0v0h5.8c0.6,0.1,1.4,0.5,0.6,2.5l-0.5,1c0,0,0,0,0,0h0l-7.6,16.3c0,0-1.3,3.3,1.9,3.3h2.9h7.8h5.6v0c0,0,0,0,0,0
			c0.6,0,1-0.5,1-1C78.1,33.8,77.7,33.4,77.1,33.4z M5.5,0L0,5.5v29.2L5.5,40h73.3l5.5-5.4V5.5L78.7,0H5.5z"/>
	</defs>
	<clipPath id="SVGID_26_">
		<use xlink:href="#SVGID_25_"  style="overflow:visible;"/>
	</clipPath>
	<g class="st12">
		<defs>
			<rect id="SVGID_27_" width="265" height="110"/>
		</defs>
		<clipPath id="SVGID_28_">
			<use xlink:href="#SVGID_27_"  style="overflow:visible;"/>
		</clipPath>
		<rect x="-5" y="-5" class="st13" width="94.2" height="50"/>
	</g>
</g>
<g>
	<defs>
		<rect id="SVGID_29_" y="0" width="264.3" height="110"/>
	</defs>
	<clipPath id="SVGID_30_">
		<use xlink:href="#SVGID_29_"  style="overflow:visible;"/>
	</clipPath>
	<g class="st14">
		<defs>
			<rect id="SVGID_31_" width="265" height="110"/>
		</defs>
		<clipPath id="SVGID_32_">
			<use xlink:href="#SVGID_31_"  style="overflow:visible;"/>
		</clipPath>
		<g class="st15">
			<g>
				<defs>
					<rect id="SVGID_33_" x="1" y="35" width="264" height="75"/>
				</defs>
				<clipPath id="SVGID_34_">
					<use xlink:href="#SVGID_33_"  style="overflow:visible;"/>
				</clipPath>
				<g class="st16">
					<defs>
						<rect id="SVGID_35_" x="1.9" y="106.6" width="262.1" height="3.4"/>
					</defs>
					<clipPath id="SVGID_36_">
						<use xlink:href="#SVGID_35_"  style="overflow:visible;"/>
					</clipPath>
					<g class="st17">
						<defs>
							<rect id="SVGID_37_" width="265" height="110"/>
						</defs>
						<clipPath id="SVGID_38_">
							<use xlink:href="#SVGID_37_"  style="overflow:visible;"/>
						</clipPath>
						<rect x="-3.1" y="101.6" class="st18" width="272.1" height="13.4"/>
					</g>
				</g>
				<g class="st16">
					<defs>
						<polygon id="SVGID_39_" points="264,35.6 90,35.6 85.6,40 264,40 						"/>
					</defs>
					<clipPath id="SVGID_40_">
						<use xlink:href="#SVGID_39_"  style="overflow:visible;"/>
					</clipPath>
					<g class="st19">
						<defs>
							<rect id="SVGID_41_" width="265" height="110"/>
						</defs>
						<clipPath id="SVGID_42_">
							<use xlink:href="#SVGID_41_"  style="overflow:visible;"/>
						</clipPath>
						<rect x="80.6" y="30.6" class="st20" width="188.4" height="14.4"/>
					</g>
				</g>
			</g>
		</g>
	</g>
</g>
</svg>
