<svg id="Layer_1" data-name="Layer 1" xmlns="http://www.w3.org/2000/svg" viewBox="0 0 343.75 150.16"><defs><style>.cls-1{fill:#010101;}.cls-2{fill:#fff;}</style></defs><title>tmz-logo-image-blk</title><path class="cls-1" d="M377.36,248.84H242a4.4,4.4,0,0,0,0,8.78l34.23,0h0c.64,0,15.39-1.58,15.29,12.92h0v95.3c0,7.65,5.82,13.81,13,13.81h9.77c7.15,0,13-6.17,13-13.81V269.61c.59-13.37,15-11.89,15.24-11.89v0h34.87a4.29,4.29,0,0,0,4.14-4.39A4.2,4.2,0,0,0,377.36,248.84Z" transform="translate(-226.28 -229.9)"/><path class="cls-1" d="M287.53,260.73c2.32,1.92,4,5,4,9.91h0v95.3a14.88,14.88,0,0,0,.89,5,10.81,10.81,0,0,0,4.93-9.17V271.38C297.35,265.56,293,260.83,287.53,260.73Z" transform="translate(-226.28 -229.9)"/><path class="cls-1" d="M326.35,247.31" transform="translate(-226.28 -229.9)"/><path class="cls-1" d="M454.11,269.31h-4.59a14.33,14.33,0,0,0-12,6.61,18.6,18.6,0,0,0-1.92,2.91l-14.85,29.74c-3,5.82-8.09,15.59-12,23-4.83,9.08-10.36,1.48-12.28-1.73-1.18-1.92-5.08-8.73-7.15-12.28L366.75,274c-6.31-11.79-18.55-8.88-23.68-6s-8,8.88-8,15.54v86.91a6.76,6.76,0,1,0,13.52,0V330.82c0-9.47,9.52-12.58,13.71-5.28s24.86,46.22,24.86,46.22c2,3.06,3.55,4.49,4.78,4.88l.25.15c2.42,1.23,6.56.44,9.62-5l19.63-38.92,3.35-6.61c1.48-2.17,2.66-4.74,6.76-4.74,4.69,0,6.22,3,6.17,8.29V363c-.15,9.13,3.95,14.26,11.84,14.26h4.59A14.26,14.26,0,0,0,468.36,363V283.52A14.25,14.25,0,0,0,454.11,269.31Z" transform="translate(-226.28 -229.9)"/><path class="cls-1" d="M565.78,370.93H533.33a12.47,12.47,0,0,0-1.38,0c-7.3,0-8.63-3.21-9.62-5.52s.94-8.78,3.35-13.91,27.57-59.59,27.57-59.59c1.53-2.86,7.5-14,9.42-17.71a3.36,3.36,0,0,0,.49-1c0-.1.1-.15.1-.2l0,0a4.65,4.65,0,0,0,.25-1.48,4.41,4.41,0,0,0-4.19-4.59H491.15a4.61,4.61,0,0,0,0,9.17h27.23a5.23,5.23,0,0,1,4.24,5v.1a3.18,3.18,0,0,1-.1,1.28c-.2.44-30.68,66.34-30.68,66.34-1.13,2.22-2.47,4.93-3.6,7.2-2,4-7.5,14.3-2.56,20.87,2.71,3.6,11.94,3.26,19.73,3.26h60.43a4.41,4.41,0,0,0,4.19-4.59A4.47,4.47,0,0,0,565.78,370.93Z" transform="translate(-226.28 -229.9)"/><path class="cls-2" d="M259,229.9c26.09.44,51.45,1.63,75.37,4.29-23.92-.84-49.38-3.06-74.68-3.65C259.12,230.69,259.07,230.29,259,229.9Z" transform="translate(-226.28 -229.9)"/><path class="cls-2" d="M236.48,240.85a7.25,7.25,0,0,1-3.3,1C233.42,240.7,235.39,241.2,236.48,240.85Z" transform="translate(-226.28 -229.9)"/><path class="cls-2" d="M542.55,246.18c-24,.39-48.73,0-70.69,2C492.24,244.55,520,244.5,542.55,246.18Z" transform="translate(-226.28 -229.9)"/><path class="cls-2" d="M274,267.44c-1.28.3,1.09,1.23,0,1.33-1.33-.54,0-3.75-2.32-3.3.15-.74,1.63-.15,2.32-.35,1.92,3.5,2.76,9.82,1,14.26C274.66,276.37,276.43,269.9,274,267.44Z" transform="translate(-226.28 -229.9)"/><path class="cls-2" d="M466.84,266.75c5.18,4.78,17.51,4.19,26.88,5.62-1-.15,2.22,0,.35.35C485.53,272.32,469.1,272.27,466.84,266.75Z" transform="translate(-226.28 -229.9)"/><path class="cls-2" d="M270.66,279c.3,0,.3.15.35.35-.74,28.17-7,55.39-5.33,86-1.58-3-.79-8.29-1.33-12.28-.69,7-1.43,15.54-.64,22.89-2.17-24.76,2.17-52.34,5-76.7C269.48,292.3,269.43,285,270.66,279Z" transform="translate(-226.28 -229.9)"/><path class="cls-2" d="M313.82,281.35c.59-.89.25,1.92.35,2.66C313.58,284.9,313.92,282.09,313.82,281.35Z" transform="translate(-226.28 -229.9)"/><path class="cls-2" d="M272.34,286.33c0,28.12-2.42,56.68-3.3,85C268.2,343.94,270.81,314,272.34,286.33Z" transform="translate(-226.28 -229.9)"/><path class="cls-2" d="M463.53,287c.49,10.16,1.28,23.43.35,32.85C463.09,309.56,463.73,297.82,463.53,287Z" transform="translate(-226.28 -229.9)"/><path class="cls-2" d="M313.13,287.66c.59-.89.25,1.92.35,2.66C312.89,291.21,313.23,288.35,313.13,287.66Z" transform="translate(-226.28 -229.9)"/><path class="cls-2" d="M515,352.08c14.21-.69,29.2.64,43.16,1.33C544.18,353.86,529.09,352.58,515,352.08Z" transform="translate(-226.28 -229.9)"/><path class="cls-2" d="M512.66,352.08c.49.39.74,1.28.35,1.68C511.53,353.76,512.12,352.58,512.66,352.08Z" transform="translate(-226.28 -229.9)"/><path class="cls-2" d="M319.1,364c.2,6.36,9.17,12.09,15.59,8.29,1.53-.89,2.47-2.71,2-5.33,1,.49.54,2.56.64,4C332.22,377.34,317.87,373.93,319.1,364Z" transform="translate(-226.28 -229.9)"/><path class="cls-2" d="M367.59,248.84c-.64-1.87,1.09-4.54-.35-6.66-2.17,3.26-2.81,8-6,10.31-.64-1.09,1.23-2.52,1.33-4-.79-.2-2.86,1.13-4.29,1.33,0,.74,1.18.15,1.68.35-2.56,1.53-7,1.23-11,1.33.3,1.58,3.75,0,4,1.68a204.61,204.61,0,0,0-32.56-.35c2-1.33,5.52-1.09,8.63-1.33-6.26-2.22-15.39-1.43-16.92,5.33-1.68,7.45-2,17.76-2.66,28.21-1.18,19.53-2.81,38.87-3.65,57.76,1.28-20.91,5.13-44.34,6.66-66.74.64-9.42-2.12-21.26,5.33-24.22-.54,1.58-3.6,3.5-3.65,6.66a36.94,36.94,0,0,0,7.65-3.3c-.79-.89-2.17.49-3.65,0,4.49-1.63,7.15-1.23,11.94-2-2.22,2.61-6.31,1.83-9,3.65-2.27,1.58-2.27,3.8-4,6-.69.79,2-4.49,2.66-5.33-2.56,0-3.75,1.53-6,2a18.33,18.33,0,0,0,0,7c1-1.78,1-4.49,2-6.31-4.44,27.87-6.51,61-9.62,91.95,4-18.1,4.93-41.29,7-60.77-1.43,23.18-1.78,49.13-6,70.39.74-8.09,1.78-15.93,2.32-24.22-2.27,8.39-2.22,19-4.29,27.57-.49-2.37.89-4.64,0-6.31-1.83.94-2.17,5.67-4,7.65-4.39,4.83-13.32,4-21.9,3.65,5,4,15,4,19.93,0-.79,1.43-2.76,1.68-3.65,3,4.14-.1,6.86-6,8.29-5.62,1-.15-1,2.56-1.33,3-2.71,3-9,6.22-15.29,6.31-6.56.1-15.19-3-16.92-8.63,3.9,5.87,13.91,9.32,23.23,6.66-11.3-.1-19.34-3.45-22.89-11.3.89.25.69,1.53,1.68,1.68-3.3-8.43-.94-20.17,0-31.87,1.28-16.23,2.42-32.56,3.65-48.78.64-8.48,2.47-17.26,1.68-24.22-1.73-15.29-30-5.43-44.49-7.3.3,2.12,2.12,2.76,4.29,3-6,1.09-8.14-4.44-10.31-8.29.35,12.18,17.61,10.26,31.22,10.31-6-3.06-14.21-3.95-23.58-3.65,12.78-3.55,21.85,4.54,35.17,3.65-1.38-3.11-6.26-2.71-10.31-2.32,5.92-3.21,11.3,1.43,14.6,4-.69,1.18-2.47-1.63-2,1,.15,1.87-.59-2.56-2.32-2,.74,6.36.25,15.78-2,21.26.2-5.67,2.42-14,1-21.26-2.27-1-5,.25-7.65,0,0,.39.59.3,1,.35-8.19,2.66-19.43.39-30.19,1,6.36-1.73,16.33.2,23.23-1-8.09-.2-19,.1-26.88-1.33,1.13-.79,3.65-.1,5.33-.35-6.41-1.63-11.74-13.07-3-15.93,0,1.58-4.78,2.76-2.66,5.62,2.76-.35,3.55-2.66,6-3.3.2.74-.94,1,.35,1,33-1.48,66.49-2.32,99.25-4-30.53.25-64.32.1-94.61,1.68,22.84-4.34,50.17-1.43,77.69-2.66,13.81-.59,23.13.89,35.17.35,3.95-.2,8.34-.35,11,1,.3-3.11-3.75-2.47-7.65-2.66-37.54-1.68-86.67-1.83-121.15,1.33,38.82-4.14,83.16-4.09,124.5-3,.15.69-.49.64-1,.64.44.74,2.32.15,3.3.35a15.92,15.92,0,0,0-7.3-4.29c4.44-.79,6.51,3.7,10.31,4.64.35-1.92-5.92-3.55-5.33-4.64,3.35,1.09,5.23,3.65,8.29,5C365.81,240.65,370.45,245.44,367.59,248.84Zm-2.66-4.69c2-.94,1.23-4.49,0-5.62h-1.68C363.55,240.7,365.42,241.29,364.93,244.16Zm-132.44,9c-2.22-.89-1.43-4.74-3.3-6C227.65,249,230.86,253.33,232.48,253.13Zm128.15-5.33c-7,.1-19.29,1.58-27.57,1.33-.35,0-.25.44.35.35,8.14.2,17.26,1.23,23.92-.64,1.38.25,1.73-.49,3-.35C361.37,247.56,362.07,247.81,360.63,247.81Z" transform="translate(-226.28 -229.9)"/><path class="cls-2" d="M550.49,247.81c.15,1.48,4.24,4.54,4.64,7.3.3,2.12-.94,4.24-1.33,6-1,4.34-1.78,7.65-4,11-1.78,2.66-4.78,4.83-6.66,8.29s-3.16,7.84-5,11.64c-5,10.51-11.35,22.89-15.59,33.54,7.25-15.09,15-29.65,22.59-44.49-8.83,21.41-21.9,41.39-29.89,64.72,1.68-12.13,7.5-23.33,12.63-34.18s10.26-21.8,15.29-32.56a474.43,474.43,0,0,0-27.57,53.77c-1.18,2.71-2.42,6.26-3.65,10-1.73,5.08-5.67,13.61,1.33,14.6s19.43-1.53,27.57-1c-7.94-1.63-17.76.35-26.88-.35a228.77,228.77,0,0,1,43.16-.64c-4.09.79-9.62.1-14.26.35,2.76,1.09,7.2.54,10.61,1,0,.94-2.27-.3-2.32.64,2,1.23,4.09-.2,6.31.64,3.26,1.23,6.51,9.52,3,11.3.35-.89,2.22-3.6.35-5.33-1.09,5.48-9.91,4-17.91,4-23.73,0-49.38,1.13-70-1,2.71,2.66,8.58,2.71,14.26,3,7.89.35,16.82,0,24.56.35.39.64-3.16.15-4,.64,13.17,1.28,29.15,1,44.49,1,1.87,0,6.71.49,7,.35-1.68.89-4.83.35-4.64.35-.49,0-2.76-.15-6.66,0-8.24.35-15,.79-24.56,1,3.95,1.58,13.17-.1,17.26,1-19.19.49-39.07.3-58.11,1-.79-.2-2.42.39-2.66-.35h2.66a22.59,22.59,0,0,0,5-.35c-4.74-.69-10.51-.35-14.95-1.33,16.38.1,35.27.79,51.79-.64-18.6-2.32-42.72.89-58.11-4.64,1.28-3-1.68-4.49-1.33-7.65a3.17,3.17,0,0,0-1,2.32c2.61-15,10.8-28.07,16.57-41.83-5.48,11.69-11.74,22.54-16.28,35.17-.3-4.24,2.52-7.84,4-11.64,3-7.6,5.77-15.34,9-22.89,5.08-12,8.83-25.16,16.57-35.86-1.53,4.19-5.38,9-7,14.26a41.09,41.09,0,0,0,3.65-6.66c.69.1,0,1.43-.35,1.68,5.52-8.78,11-20.37,16.92-29.89-6.71-4.64-20-.74-30.19-1.68,4.29,3.11,11.1,3.75,16.92,5.33-7.65.1-14.8-3.16-20.91-5.62-.69-.1,0,.94.35,1-1.23.54-1.58-2.61-3.3-2.66.15,9.27,12.82,6,20.57,7.65-8.58,0-22.2,2.27-21.56-8-.59-1.58-2.91-3-1.68-5.33.3.84,0,3.5,2,3.65,1.33-.59-.2-2.32.64-3.65,1.73-3,5.57-3.95,9.62-4.64-.54.64-1.92.54-2.32,1.33,20.17-.89,36.7-.94,53.42-2.66,1.28-.15,7.25-.35,3,.35-12.48,2-30.14,1.48-43.51,3,10.16.79,20.87.15,31.52-.35,9.52-.44,21-1.78,27.87.64.15-.79-.59-.74-.35-1.68,2,.54,1.53,3.55,3.3,4.29v-3.65c-1-1.33-3.7-1-6-1,.25-1.73,3.26-.69,5-1C551.63,249.38,550.54,249.09,550.49,247.81Zm-40.15,94.31c-.94,3-2.17,5.57-2,9.62,0,.39.35.2.64,0C509,348.23,510.83,344.93,510.34,342.12Zm-27.23-87.31c1,0,5.08-.44,3.65-.64-5.72,0-14.06-2.32-16.28,2.32.2,1.13-.49,3.16.64,3.3C471,253.58,477.44,255.16,483.11,254.81Zm70.39,4.29c.69-1.33,1.18-4.49-.35-5.33C553.65,255.94,552.07,258.07,553.5,259.1Zm-5.67,9.62c1.87-3.4,5.38-8.09,2.66-11.94-4.39,12.33-12.63,22.54-16.28,34.53,3.06-5.72,5.82-11.64,9-17.26,0,2.07-1.87,4.09-1.68,5.33C543.39,276.22,545.81,272.52,547.83,268.72Zm1,0c1-2.22,3.4-4.78,3-7.3C551.09,263.94,548.67,266.5,548.82,268.72ZM506,270.4c-12.63,22.15-23.18,48.09-33.2,71.72,10.51-21.65,21.26-44.39,31.52-65.7,1.33-2.81,3.9-6.51,2.66-10C506.79,268.18,504,271.24,506,270.4Zm-14.26,26.24c2.56-5.62,6.36-11.79,8.29-16.92C497.17,285,493.27,291.11,491.75,296.64Zm53.42-19.58c1.73-2.52,4.34-5.82,4.64-8.63C548.13,270.94,544.82,273.6,545.17,277.06Zm-22.54,39.17c1.13-2.66,4.44-8.24,4.29-9.27v.35C525.34,309.66,522.72,314.5,522.62,316.22Zm-49.47,18.25c3.5-8.14,7.84-15.39,10.61-24.22C479.36,317.26,475.62,326.68,473.15,334.47Zm8-14.6c.89-2.22,3.26-6.41,3-7.65C483.11,314.4,481,318.89,481.14,319.87Zm31.52,18.25c-.1.15,2.42-4.39,2-5.62C514,334.37,512.91,335.85,512.66,338.12ZM471.82,368c-1.43-1.87-4.59-5.43-4.64-10,0-1.48,1.38-6.36.64-5.33C464.81,357.46,464.12,368,471.82,368Zm68.71-10.31h-6c-1.78.2-4.44-.44-5.62.35C532.69,357.8,537.32,358.49,540.53,357.71Z" transform="translate(-226.28 -229.9)"/><path class="cls-2" d="M437.63,375c-4.59-2.17-12.92-.54-15.29-5,1,.3,3.06,2.47,5.62,2.32.44-.89-1.58-2.17-2-3.3.1-.59,1.13.44,1-1,0-1-1.58-.44-2-1-.74,0-.15,1.18-.35,1.68-1.18-.49-.1-3.21-1.68-3.3-1,0,.44,2.47-1,2-1.73-8.68-.49-20.27-2-29.2.64.44.2,2,.64,2.66.94-7.55.69-16.38,2.66-22.89-1.43,11.94-1.58,27.92.35,40.5.44,2.91.3,6.66,2.66,7.65.74-9.52-1.48-21.7-1.33-32.85-.3-.89-.74,1-1.33,0,.54-5.48,4.19-16.43-1-19.58-6.81,7.79-13,16.23-15.93,27.87-.44-.1-.3-.84-.35-1.33-4.44,7.84-7.89,16.67-11.94,24.91-4.44-1-6.22,5.52-9.27,8a9.82,9.82,0,0,0-4.64,0c-.25.59,1.13,2.42,2,3-2-2-7.35-6-9.62-9.62-.84-1.33.79,0,.64.35.44-1.33-5.82-10-7-11.94-6.91-12-13.52-26.93-19.93-37.83-4.19,2-7.55,11-8,17.91-.15,2.76.44,5.72.35,8.63-.35,7.25-2,12.68-2.66,19.93-.44,5.43-6.31,7.84-12.63,7-1.18-.15-2.56-1.38-2.32-4,.94,1.28,1.18,3.26,3.65,3a10.54,10.54,0,0,1-2-8.29c.39-2.61.2-5.77.35-8.63.74-16,1.28-35.42,1.33-51.79-1.92,19.88-1.53,42.08-4,61.41-1.13-1,0-3.11,0-4.64.74-16.28,1.43-36.75,2.32-54.46-2.47,19.09-5.23,37.93-5.62,59.09-1.58-10.61,1-22.64,1.68-33.2a7,7,0,0,0-1.33-2c-1.92-17.26,1.58-34.08,4.64-48.49-1.53,14.35-6.81,32.56-3.65,49.47,3.26-17.76,4.24-37.78,8-55.1.74,0,.15,1.43.35,2a2.46,2.46,0,0,0,.64-2c-1.58,9.82-2.22,23.43-2,36.21,2.76-15.83-2.32-39.46,11-44.84-1.92-.59-4.93.59-5.62,2.32-.94-1.53-2.71.44-3.3,1.33,1.28-4.83,9.77-5.28,16.28-6a17.25,17.25,0,0,0-23.23,11.94c1.73-6.56,5.92-13.56,14.26-14.6.89.25-.25-1.58.64-1.33,6.22-.89,11.1,2.37,16.28,3.65.35-2.12,4.44,1.38,6,2.32.54-.79-1.18-2.12-1.33-3.3,2.42,2.76,3.95,6.46,6,9.62a18.35,18.35,0,0,0-5.33-5c3.35,9.17,10.9,17,15.59,25.9-.1.79-.89-.35-1-.64,3.3,8,9.08,16.38,12.28,25.55-6.71-11.79-12.28-24.66-19.58-35.86,2.32,5.72,5.52,11.64,8.63,17.91,3,5.92,5.38,13.32,9,17.61.59.74,1.87,1.23,2.32,1.68,2.66,2.37,4.24,5.67,9,4.64,8.24-17.41,16.77-34.58,24.91-52.14,0,3.16-2.61,6.46-3.65,9.62,2.71-2.52,5.62-7.69,8.63-11-.49.39-1.38.39-1.68,1,.39-2.47,5-3.6,6.31-6.31a8.48,8.48,0,0,0-3.65,2.66c3.5-7,11.64-11.44,21.26-10.31,6.17.74,12.48,5.72,14.26,11,.1.2.35,1.09.35,1,.44,4.44,2.32,10,2,14.26-.64,8.73-2.52,17.66-1.33,27.57,1.18-2.37.2-6.91,1-9.62.15-1.18-.35-4.74.35-4.29v5c-1.13,8.68-.2,16.82-.64,24.91-.15,2.32-1.13,4.59-1.33,7-.44,6,.35,12.63.35,18.6-1.38-1.13,0-5-1-6.66-1,4.69-.79,11.74-.35,16.92.44.54,1.63-1,1.68-2,1.53,2.66-3.8,3.7-1.68,6-2.52.15-4.88,2.71-6,5.33-.59-.25,0-.59,0-1-1.28,0-3.26,2-4.29,3.3-7.3-.35-14.95,7.1-23.23,4.64-.94-.25-3.11-2.32-2.32-2.66.35,1.09,1.63,1.23,2.32,2A34,34,0,0,0,437.63,375ZM433.34,259.1c3.06.3,4.64-1.73,7-2,9.52-1.18,15.49,7,19.58,12.28C458.25,259.15,443.11,251.9,433.34,259.1Zm23.87,9.62c-2.37-6.51-8.73-10.75-16.57-10.61C449.13,258.66,452.68,264.23,457.22,268.72ZM336.07,259.1a25,25,0,0,1,6.66.64C341.84,258.56,337.35,257.67,336.07,259.1Zm93.28,2c1.09-1,2.91-1.28,3.65-2.66C431.47,258.85,429.25,260.24,429.35,261.12Zm0,2.66c3.45-1.38,7.6-4.09,12.28-4,3.45.1,5.48,2.56,8.29,2.66C445.72,257.82,431.07,258.07,429.35,263.79ZM440,261.42c2.12-.15,3,1,5.33.64C444.88,260.73,440.84,260.14,440,261.42Zm-4.64,1c-9.42,2.66-12.78,10.8-17.26,18.6-6.91,12-15.24,25-18.94,37.83C405,311.59,409.76,302,415,292c4.39-8.34,9.22-21.75,16.28-26.88,1-.79,5.13-2.27,4.29-2.66Zm-79,2.61c0-1.18-2-2.22-2.66-1.68A17.12,17.12,0,0,0,356.29,265.07Zm104.23,26.59c.84-8.19,2.17-18.15-2.66-22.89C459.44,275.72,458.55,285.15,460.52,291.66Zm-39.81-18c-.15-.2-3.35,3.9-3,5.33C418.59,277.11,419.83,275.63,420.71,273.7Zm-10,15.29c.74-2.37,3.3-4.69,3.3-6.66C413,284.41,410.55,286.82,410.75,289Zm48.14,23.23c.69-7.69,1.33-18.1-.35-25.21C458.75,295.31,458.1,304.48,458.89,312.23Zm-64.42,9.27a53,53,0,0,0,7-14.26C398.86,311.73,396.69,316.67,394.47,321.5Zm65.06-3.95c1.28-.1.64-5.43.35-5C460.08,314.54,459.29,315.53,459.53,317.55ZM419,316.22a8.34,8.34,0,0,0,2-2.66C419.83,313.71,418.74,315.68,419,316.22Zm-9,9c-7.2,13.47-14.5,27.57-20.91,40.15.79-.59,1.23-2.76,2.32-2,0,.49-1.38,1.48,0,1.33,5.13-7.65,9.57-16.52,14-25.21,2.22-4.44,4.09-9.17,6-13.61,2-4.69,5-7.79,7.65-11.94C414.4,315.73,412.33,321,410.06,325.2Zm-53.77,3c-1.73-2.66-3.5-11.49-8-12.92-5.67-1.87-9.27,3.5-10,8-1.23,8-.69,21.16-1,27.57,1.78-13.12-.44-30.34,9.62-35.17,7.79,15.24,17.36,31.52,26.24,46.81-5.13-12.82-13-24.61-18.25-36.21A7.45,7.45,0,0,0,356.29,328.16Zm70.39-7.65a6.16,6.16,0,0,0-.64-3.65C426.34,318,425.3,320.46,426.68,320.51Zm33.2,3c-.25-1.78,1-3.85,0-5.33C459.53,319.38,459.19,322.39,459.88,323.52Zm-71.38,2c1.33-.74,3-1.23,4-2.32a13.74,13.74,0,0,1-8.29-4C385.3,321.65,386.09,324.41,388.5,325.5Zm8.29-.64c.84-1.73,3-3.9,2.66-5.62C398.57,320.86,396.2,322.83,396.79,324.85Zm-4,3c2.37-.2,3.26-3.6,3-5.33C394.77,324.21,393.73,326,392.8,327.81Zm32.9,4.34c.54,2,.25,4.83.35,7.3a57.71,57.71,0,0,0,.35-16.28C425.84,325.89,426.24,329.49,425.7,332.15Zm-37.19-6c1,.64,1.68,1.63,3.3,1.68.25-1,2.32-3.26.64-4C391.51,325,389.64,325.2,388.5,326.19ZM423.67,365a60.05,60.05,0,0,0-1.68-8.29C422.39,359.68,421.11,364.27,423.67,365Zm31.87-1.33c1,0,2.27-1.48,1.33-2.32C456.58,362.29,455.64,362.54,455.54,363.67ZM428,367c1.18-.39,1.87,1.38,2.66.35-1.18-.59-1.68-1.87-2.66-2.66Zm-50.46,1.33c-.35,3.16,4.39,5.48,6,2.66,1.73,1.13,3.95-2.61,5-4.29C386.19,368.56,380.86,371.47,377.55,368.31ZM437.29,370c3.65,1.09,8.14,2,11-.35.49,1.09-1.87.94-.64,1.68,2.47-.49,4.19-2.91,6.31-4.64C449.57,369.69,444.29,369.54,437.29,370Zm-8.93,1.33c3.06,1.83,11,1.83,14.95.64-6-.49-10.26-2.81-15.59-4A5.26,5.26,0,0,0,428.36,371.32Z" transform="translate(-226.28 -229.9)"/><path class="cls-2" d="M340.36,345.77c-.39,0-.3.59-.35,1-.64-7.6,1.68-15.14,2-22.89.79,11.64-1.43,26.69-.64,39.51.25-2.12-.54-3.21-.35-5.33-1.18,3.26-1,7.84-2,11.3-.35,0-.25-.39-.35-.64C340.11,361.9,340.31,353.91,340.36,345.77Z" transform="translate(-226.28 -229.9)"/><path class="cls-2" d="M567.12,360.71c.49-.54.89,3.75-.64,4.64C566.77,363.67,567.71,362.39,567.12,360.71Z" transform="translate(-226.28 -229.9)"/></svg>