<?xml version="1.0" encoding="utf-8"?>
<!-- Generator: Adobe Illustrator 21.0.0, SVG Export Plug-In . SVG Version: 6.00 Build 0)  -->
<svg version="1.1" id="Layer_1" xmlns="http://www.w3.org/2000/svg" xmlns:xlink="http://www.w3.org/1999/xlink" x="0px" y="0px"
	 viewBox="0 0 4320 2592" style="enable-background:new 0 0 4320 2592;" xml:space="preserve">
<path d="M1959.6,884.4H1110c-15.3,0-27.8,12.4-27.8,27.8c0,15.3,12.4,27.8,27.8,27.8h217.6l-0.1,0.4c1.5,0,103-10,102.2,81l0.1,0
	v592.1c0,48,51.6,94.1,99.6,94.1h11.5c48,0,98.9-46.2,98.9-94.1V1015c3.9-84.2,100.6-74.7,102.1-74.7l-0.1-0.4h217.9
	c15.3,0,27.8-12.4,27.8-27.8C1987.4,896.9,1974.9,884.4,1959.6,884.4z"/>
<path d="M2444,1047.4H2416c-30.9,0-58,16.2-73.4,40.5c-4.3,5.1-8.3,11.1-11.6,17.9l-90.7,181.6c-18.3,35.4-49.4,95.3-73.2,140.2
	c-29.4,55.4-63.2,9-75.1-10.4c-7.3-11.8-31.2-53.4-43.5-75.1l-137.5-265.8c-38.7-71.8-113.2-54.3-144.6-36.8
	c-32.1,17.8-49.1,54.3-49.1,94.9v530.7c0,22.7,18.4,41.2,41.2,41.2c22.7,0,41.2-18.4,41.2-41.2c0,0,0-184,0-241.8
	c0-57.8,58.2-76.8,83.9-32.3c25.7,44.5,151.9,282.1,151.9,282.1c12.5,18.6,21.7,27.4,29.3,29.7c0.5,0.3,0.9,0.6,1.4,0.9
	c14.9,7.4,40.1,2.6,58.6-30.5l119.9-237.6l20.3-40.3c9-13.1,16.3-28.9,41.2-28.9c28.6,0,37.9,18.4,37.8,50.7l0.1,195.1
	c-0.9,55.6,38.7,94.1,86.6,94.1h20.8c48,0,79.7-46.1,79.7-94.1v-477.9C2530.9,1086.3,2492,1047.4,2444,1047.4z"/>
<path d="M3082.8,1648.5h-198.3c-2.6-0.2-5.3-0.3-8.3-0.3c-44.7,0-52.7-19.6-58.7-33.6c-6-14.1,5.7-53.6,20.4-85
	s153.8-334.8,153.8-334.8c9.3-17.4,45.6-85.5,57.4-108.2c1.3-1.9,2.3-4,3.2-6.2c0.3-0.6,0.5-1,0.6-1.2c0-0.1-0.1-0.1-0.2-0.2
	c0.9-2.8,1.4-5.8,1.4-8.9c0-15.5-11.5-28.1-25.6-28.1h-415.9c-14.1,0-25.6,12.6-25.6,28.1c0,15.5,11.5,28.1,25.6,28.1H2779
	c14.6,2.8,25.7,15.5,25.9,30.8v0.5l-0.7,7.8l-172.8,376c-6.8,13.6-15.2,30.1-22.1,43.9c-12.3,24.5-45.6,87.4-15.7,127.4
	c16.4,21.9,72.9,19.7,120.5,19.9h368.7c14.1,0,25.6-12.6,25.6-28.1C3108.4,1661,3097,1648.5,3082.8,1648.5z"/>
</svg>
