<svg id="Layer_1" data-name="Layer 1" xmlns="http://www.w3.org/2000/svg" viewBox="0 0 625.22 474.99"><defs><style>.cls-1{fill:#fff;}</style></defs><title>tmz-live-logo-image-blk</title><polygon points="563.77 0 563.77 12.46 612.77 12.46 612.77 61.45 625.22 61.45 625.22 12.46 625.22 0 612.77 0 563.77 0"/><polygon points="0 0 0 12.46 0 61.45 12.46 61.45 12.46 12.46 61.45 12.46 61.45 0 12.46 0 0 0"/><polygon points="12.46 413.53 0 413.53 0 462.53 0 474.99 12.46 474.99 61.45 474.99 61.45 462.53 12.46 462.53 12.46 413.53"/><polygon points="612.77 462.53 563.77 462.53 563.77 474.99 612.77 474.99 625.22 474.99 625.22 462.53 625.22 413.53 612.77 413.53 612.77 462.53"/><path d="M268,50.62a7.13,7.13,0,0,0-7.1-7.16h0l-203.49.1a7.13,7.13,0,0,0-7.15,7.11s0,0,0,.06a7.31,7.31,0,0,0,7.46,7.15h54.76c8.47,0,16.81,6.18,16.81,13.39,0,8.18.08,160.85.08,160.85,0,10.14,12.2,18.36,27.24,18.35s27.22-8.23,27.21-18.38c0,0-.07-149.53-.07-160.69,0-7.83,9.63-13.56,17-13.56h60.22a7.11,7.11,0,0,0,7.12-7.1S268,50.66,268,50.62Z"/><path d="M392.65,77.31c-11.6,0-20.32,8.06-26.26,19.06-4.2,7.78-50.89,94.76-50.89,94.76s-48.13-87.27-52.85-95.65-12.31-18.11-25.78-18.11c-19,0-25.06,15.69-25.06,29,0,10.45.07,130.7.07,135.35s4.56,8.72,9.5,8.72,9.33-4,9.33-8.72V177.49c0-8.38,2.27-15.33,10.08-15.33s10.46,4,14.45,11.25,29.93,54.48,32.69,59.27,9.29,15.84,13,15.84c4,0,10.34-9.66,12.72-14.08l32.85-61.12C349,168.68,353.31,162,359.31,162s8.62,6.72,8.62,11.92v61.57c0,8.24,9.92,14.92,22.1,14.91s22.12-6.68,22.11-14.91c0,0-.07-124.67-.07-137.87C412,83.09,401,77.31,392.65,77.31Z"/><path d="M556.1,235h-58c-10,0-15.7-8.41-9.24-22.44s50.83-110,54.73-118.56,3.07-21.23-10.68-21.23H439.15a7.17,7.17,0,0,0-.54,14.33H480.2c6,0,8.79,8,4.47,17.37s-51.59,112.68-56.1,121.86-3.76,23.06,13.45,23.06l114.13,0a7.16,7.16,0,1,0,0-14.32Z"/><path d="M250.09,295.28a1.61,1.61,0,0,0-.51-.15,4.1,4.1,0,0,0-.56,0h-1.37v2.1h1.78a1.86,1.86,0,0,0,.55-.12,1,1,0,0,0,.41-.31.94.94,0,0,0,.16-.59,1.15,1.15,0,0,0-.46-.93Z"/><path d="M257.5,280.77a17.67,17.67,0,1,0,17.67,17.67h0A17.67,17.67,0,0,0,257.5,280.77Zm-6.85,21.83-2-3.69h-1v3.69h-2v-9.23h3.57a6.23,6.23,0,0,1,1.33.14,3.2,3.2,0,0,1,1.11.46,2.28,2.28,0,0,1,.75.86,2.91,2.91,0,0,1,.28,1.35,2.71,2.71,0,0,1-.51,1.66,2.29,2.29,0,0,1-1.49.87L253,302.6Zm10,0h-6.5v-9.23h6.27v1.88h-4.23V297h4v1.88h-4v1.87h4.41Zm8-.16a4.59,4.59,0,0,1-1.85.39,5.69,5.69,0,0,1-2-.34,4.57,4.57,0,0,1-1.58-1,4.41,4.41,0,0,1-1-1.53,5.61,5.61,0,0,1,0-4,4.42,4.42,0,0,1,1-1.53,4.56,4.56,0,0,1,1.58-1,5.66,5.66,0,0,1,2-.34,4.88,4.88,0,0,1,.81.07,4.37,4.37,0,0,1,.83.23,3.76,3.76,0,0,1,.79.41,3.16,3.16,0,0,1,.68.64l-1.56,1.28a2,2,0,0,0-.73-.56,2.47,2.47,0,0,0-1-.19,2.53,2.53,0,0,0-1.91.84,2.87,2.87,0,0,0-.56.94,3.57,3.57,0,0,0,0,2.38,3,3,0,0,0,.55.94,2.53,2.53,0,0,0,.83.62,2.39,2.39,0,0,0,1,.22,2.29,2.29,0,0,0,1.11-.26,2.19,2.19,0,0,0,.79-.73l1.69,1.26a3.52,3.52,0,0,1-1.52,1.26Z"/><path class="cls-1" d="M252.2,297.84a2.71,2.71,0,0,0,.51-1.66,2.91,2.91,0,0,0-.28-1.35,2.28,2.28,0,0,0-.75-.86,3.2,3.2,0,0,0-1.11-.46,6.23,6.23,0,0,0-1.33-.14h-3.59v9.22h2V298.9h1l1.93,3.69H253l-2.34-3.89A2.29,2.29,0,0,0,252.2,297.84Zm-1.76-1.09a1,1,0,0,1-.41.31,1.86,1.86,0,0,1-.55.12h-1.83v-2.1H249a4.1,4.1,0,0,1,.56,0,1.61,1.61,0,0,1,.51.15.9.9,0,0,1,.5.88.94.94,0,0,1-.12.64Z"/><polygon class="cls-1" points="256.2 298.85 260.2 298.85 260.2 296.97 256.2 296.97 256.2 295.25 260.44 295.25 260.44 293.38 254.17 293.38 254.17 302.6 260.67 302.6 260.67 300.72 256.2 300.72 256.2 298.85"/><path class="cls-1" d="M267.65,300.7a2.29,2.29,0,0,1-1.11.26,2.39,2.39,0,0,1-1-.22,2.53,2.53,0,0,1-.83-.62,3,3,0,0,1-.55-.94,3.57,3.57,0,0,1,0-2.38,2.87,2.87,0,0,1,.56-.94,2.53,2.53,0,0,1,1.91-.84,2.47,2.47,0,0,1,1,.19,2,2,0,0,1,.73.56l1.56-1.28a3.16,3.16,0,0,0-.68-.64,3.76,3.76,0,0,0-.79-.41,4.37,4.37,0,0,0-.83-.23,4.88,4.88,0,0,0-.81-.07,5.66,5.66,0,0,0-2,.34,4.56,4.56,0,0,0-1.58,1,4.42,4.42,0,0,0-1,1.53,5.61,5.61,0,0,0,0,4,4.41,4.41,0,0,0,1,1.53,4.57,4.57,0,0,0,1.58,1,5.69,5.69,0,0,0,2,.34,4.59,4.59,0,0,0,1.85-.39,3.52,3.52,0,0,0,1.49-1.21L268.46,300A2.19,2.19,0,0,1,267.65,300.7Z"/><polygon points="161.75 280.23 128.6 280.23 128.6 430.71 223.18 430.71 223.18 400.1 161.75 400.1 161.75 280.23"/><rect x="241.03" y="322.15" width="33.16" height="108.56"/><polygon points="364.93 378.85 364.51 378.85 327.31 280.23 289.48 280.23 349.63 430.71 376.2 430.71 438.26 280.23 402.77 280.23 364.93 378.85"/><polygon points="488.42 400.1 488.42 369.5 553.67 369.5 553.67 338.89 488.42 338.89 488.42 310.84 557.49 310.84 557.49 280.23 455.26 280.23 455.26 430.71 561.32 430.71 561.32 400.1 488.42 400.1"/></svg>