<?xml version="1.0" encoding="UTF-8" standalone="no"?>
<svg width="301px" height="123px" viewBox="0 0 301 123" version="1.1" xmlns="http://www.w3.org/2000/svg" xmlns:xlink="http://www.w3.org/1999/xlink">
    <!-- Generator: Sketch 39 (31667) - http://www.bohemiancoding.com/sketch -->
    <title>LOGO</title>
    <desc>Created with Sketch.</desc>
    <defs></defs>
    <g id="Page-1" stroke="none" stroke-width="1" fill="none" fill-rule="evenodd">
        <g id="Desktop---Default" transform="translate(-570.000000, -120.000000)" fill="#CF0000">
            <path d="M700.066203,120 L574.114488,120 C571.842447,120 570,121.842541 570,124.115028 C570,126.388108 571.842447,128.230648 574.114488,128.230648 L606.373994,128.230648 L606.355168,128.287727 C606.583751,128.287727 621.624549,126.800707 621.510258,140.299084 L621.525378,140.297453 L621.525378,228.074777 C621.525378,235.189345 629.176375,242.031417 636.290603,242.031417 L637.994596,242.031417 C645.108824,242.031417 652.655313,235.189345 652.655313,228.074777 L652.655313,139.360764 C653.237146,126.878691 667.561956,128.287727 667.78535,128.287727 L667.766376,128.230648 L700.066203,128.230648 C702.338392,128.230648 704.180691,126.388108 704.180691,124.115028 C704.180691,121.842541 702.338392,120 700.066203,120 Z M771.871785,144.164046 L767.71327,144.164046 C763.13213,144.164046 759.120371,146.562848 756.836175,150.16624 C756.199938,150.924872 755.610841,151.815898 755.112762,152.813076 L741.666409,179.741334 C738.947135,184.996015 734.340943,193.869803 730.812439,200.527294 C726.456916,208.743858 721.446034,201.862943 719.675482,198.98616 C718.599424,197.236428 715.057727,191.062108 713.22536,187.858121 L692.843999,148.457872 C687.10942,137.806331 676.066743,140.406466 671.407185,142.995631 C666.655274,145.636092 664.124707,151.05267 664.124707,157.070134 L664.124707,235.754398 C664.124707,239.126064 666.858064,241.860372 670.22988,241.860372 C673.601697,241.860372 676.335053,239.126064 676.335053,235.754398 L676.335053,199.905651 C676.335053,191.336976 684.959379,188.523944 688.765236,195.119611 C692.570945,201.715131 711.277219,236.947424 711.277219,236.947424 C713.126782,239.698485 714.497537,241.01323 715.624885,241.346661 C715.694112,241.390693 715.760078,241.440063 715.834048,241.476683 C718.040123,242.579568 721.77616,241.860372 724.520634,236.947424 L742.289156,201.724619 L745.302979,195.750742 C746.634302,193.801753 747.716141,191.473077 751.405039,191.473077 C755.651606,191.473077 757.017469,194.205309 757.001904,198.984084 L757.016432,227.903733 C756.881239,236.146539 762.746415,241.860372 769.860198,241.860372 L772.945174,241.860372 C780.058957,241.860372 784.753055,235.018449 784.753055,227.903733 L784.753055,157.047154 C784.753055,149.931993 778.985568,144.164046 771.871785,144.164046 Z M866.568764,233.271727 L837.176917,233.271727 C836.793278,233.246672 836.387551,233.231846 835.947285,233.231846 C829.325207,233.231846 828.13545,230.329859 827.242317,228.245659 C826.349185,226.162348 828.091275,220.296551 830.270815,215.639346 C832.450207,210.98229 853.062523,166.007421 853.062523,166.007421 C854.44321,163.423742 859.826168,153.33632 861.569444,149.96762 C861.758151,149.685041 861.917507,149.379483 862.036986,149.048721 C862.078938,148.961546 862.111402,148.894089 862.118814,148.870961 C862.121927,148.860435 862.099988,148.849908 862.095689,148.83953 C862.223618,148.422186 862.309596,147.983493 862.309596,147.519003 C862.309596,145.221461 860.611384,143.358905 858.51797,143.358905 L796.863949,143.358905 C794.770535,143.358905 793.072323,145.221461 793.072323,147.519003 C793.072323,149.816546 794.770535,151.679101 796.863949,151.679101 L821.522859,151.679101 C823.68639,152.094814 825.329161,153.976199 825.365924,156.252392 L825.365924,156.330968 L825.255783,157.486485 L799.633475,213.238469 C798.619825,215.249282 797.385004,217.700567 796.36083,219.749185 C794.541952,223.388159 789.595109,232.710722 794.040908,238.639677 C796.473935,241.88562 804.846701,241.56583 811.908008,241.592071 L866.568764,241.592071 C868.662178,241.592071 870.36039,239.72996 870.36039,237.431825 C870.36039,235.133838 868.662178,233.271727 866.568764,233.271727 Z" id="LOGO"></path>
        </g>
    </g>
</svg>