<?xml version="1.0" encoding="utf-8"?>
<!-- Generator: Adobe Illustrator 21.0.0, SVG Export Plug-In . SVG Version: 6.00 Build 0)  -->
<svg version="1.1" id="Layer_1" xmlns="http://www.w3.org/2000/svg" xmlns:xlink="http://www.w3.org/1999/xlink" x="0px" y="0px"
	 viewBox="0 0 792 612" style="enable-background:new 0 0 792 612;" xml:space="preserve">
<style type="text/css">
	.st0{fill:#010101;}
	.st1{fill:#CF0000;}
</style>
<g>
	<path class="st0" d="M377.4,248.8H242c-2.3,0-4.1,2-4.1,4.4s1.9,4.4,4.1,4.4l34.2,0l0,0c0.6,0,15.4-1.6,15.3,12.9l0,0v95.3
		c0,7.6,5.8,13.8,13,13.8h9.8c7.2,0,13-6.2,13-13.8v-96.3c0.6-13.4,15-11.9,15.2-11.9v0h34.9c2.3,0,4.1-2,4.1-4.4
		C381.5,250.8,379.7,248.8,377.4,248.8z"/>
	<path class="st0" d="M287.5,260.7c2.3,1.9,4,5,4,9.9l0,0v95.3c0,1.8,0.3,3.5,0.9,5c3-1.9,4.9-5.3,4.9-9.2v-90.4
		C297.3,265.6,293,260.8,287.5,260.7z"/>
	<path class="st0" d="M326.4,247.3"/>
</g>
<path class="st0" d="M454.1,269.3h-4.6c-5.1,0-9.5,2.7-12,6.6c-0.7,0.8-1.3,1.8-1.9,2.9l-14.8,29.7c-3,5.8-8.1,15.6-12,23
	c-4.8,9.1-10.4,1.5-12.3-1.7c-1.2-1.9-5.1-8.7-7.2-12.3L366.8,274c-6.3-11.8-18.5-8.9-23.7-6c-5.2,2.9-8,8.9-8,15.5v86.9
	c0,3.7,3,6.8,6.8,6.8c3.7,0,6.8-3,6.8-6.8c0,0,0-30.1,0-39.6s9.5-12.6,13.7-5.3s24.9,46.2,24.9,46.2c2,3.1,3.6,4.5,4.8,4.9
	c0.1,0,0.1,0.1,0.2,0.1c2.4,1.2,6.6,0.4,9.6-5l19.6-38.9l3.4-6.6c1.5-2.2,2.7-4.7,6.8-4.7c4.7,0,6.2,3,6.2,8.3V363
	c-0.1,9.1,3.9,14.3,11.8,14.3h4.6c7.8,0,14.3-6.4,14.3-14.3v-79.5C468.4,275.7,462,269.3,454.1,269.3z"/>
<path class="st0" d="M565.8,370.9h-32.5c-0.4,0-0.9,0-1.4,0c-7.3,0-8.6-3.2-9.6-5.5s0.9-8.8,3.4-13.9c2.4-5.1,27.6-59.6,27.6-59.6
	c1.5-2.9,7.5-14,9.4-17.7c0.2-0.3,0.4-0.6,0.5-1c0-0.1,0.1-0.1,0.1-0.2c0,0,0,0,0,0c0.1-0.4,0.2-0.9,0.2-1.5c0-2.5-1.9-4.6-4.2-4.6
	h-68.1c-2.3,0-4.2,2.1-4.2,4.6c0,2.5,1.9,4.6,4.2,4.6h27.2c2.4,0.4,4.2,2.5,4.2,5v0.1c0,0,0.1,0.8-0.1,1.3s-30.7,66.3-30.7,66.3
	c-1.1,2.2-2.5,4.9-3.6,7.2c-2,4-7.5,14.3-2.6,20.9c2.7,3.6,11.9,3.3,19.7,3.3h60.4c2.3,0,4.2-2.1,4.2-4.6
	C570,373,568.1,370.9,565.8,370.9z"/>
<g>
	<g>
		<path class="st1" d="M259,229.9c26.1,0.4,51.4,1.6,75.4,4.3c-23.9-0.8-49.4-3.1-74.7-3.7C259.1,230.7,259.1,230.3,259,229.9z"/>
		<path class="st1" d="M236.5,240.9c-0.8,0.6-2.1,0.8-3.3,1C233.4,240.7,235.4,241.2,236.5,240.9z"/>
		<path class="st1" d="M542.6,246.2c-24,0.4-48.7,0-70.7,2C492.2,244.6,520,244.5,542.6,246.2z"/>
		<path class="st1" d="M274,267.4c-1.3,0.3,1.1,1.2,0,1.3c-1.3-0.5,0-3.7-2.3-3.3c0.1-0.7,1.6-0.1,2.3-0.3c1.9,3.5,2.8,9.8,1,14.3
			C274.7,276.4,276.4,269.9,274,267.4z"/>
		<path class="st1" d="M466.8,266.7c5.2,4.8,17.5,4.2,26.9,5.6c-1-0.1,2.2,0,0.3,0.3C485.5,272.3,469.1,272.3,466.8,266.7z"/>
		<path class="st1" d="M270.7,279c0.3,0,0.3,0.1,0.3,0.3c-0.7,28.2-7,55.4-5.3,86c-1.6-3-0.8-8.3-1.3-12.3c-0.7,7-1.4,15.5-0.6,22.9
			c-2.2-24.8,2.2-52.3,5-76.7C269.5,292.3,269.4,285,270.7,279z"/>
		<path class="st1" d="M313.8,281.3c0.6-0.9,0.2,1.9,0.3,2.7C313.6,284.9,313.9,282.1,313.8,281.3z"/>
		<path class="st1" d="M272.3,286.3c0,28.1-2.4,56.7-3.3,85C268.2,343.9,270.8,314,272.3,286.3z"/>
		<path class="st1" d="M463.5,287c0.5,10.2,1.3,23.4,0.3,32.9C463.1,309.6,463.7,297.8,463.5,287z"/>
		<path class="st1" d="M313.1,287.7c0.6-0.9,0.2,1.9,0.3,2.7C312.9,291.2,313.2,288.4,313.1,287.7z"/>
		<path class="st1" d="M515,352.1c14.2-0.7,29.2,0.6,43.2,1.3C544.2,353.9,529.1,352.6,515,352.1z"/>
		<path class="st1" d="M512.7,352.1c0.5,0.4,0.7,1.3,0.3,1.7C511.5,353.8,512.1,352.6,512.7,352.1z"/>
		<path class="st1" d="M319.1,364c0.2,6.4,9.2,12.1,15.6,8.3c1.5-0.9,2.5-2.7,2-5.3c1,0.5,0.5,2.6,0.6,4
			C332.2,377.3,317.9,373.9,319.1,364z"/>
		<path class="st1" d="M367.6,248.8c-0.6-1.9,1.1-4.5-0.3-6.7c-2.2,3.3-2.8,8-6,10.3c-0.6-1.1,1.2-2.5,1.3-4
			c-0.8-0.2-2.9,1.1-4.3,1.3c0,0.7,1.2,0.1,1.7,0.3c-2.6,1.5-7,1.2-11,1.3c0.3,1.6,3.7,0,4,1.7c-10.7-1.1-21.6-1-32.6-0.3
			c2-1.3,5.5-1.1,8.6-1.3c-6.3-2.2-15.4-1.4-16.9,5.3c-1.7,7.4-2,17.8-2.7,28.2c-1.2,19.5-2.8,38.9-3.7,57.8
			c1.3-20.9,5.1-44.3,6.7-66.7c0.6-9.4-2.1-21.3,5.3-24.2c-0.5,1.6-3.6,3.5-3.7,6.7c1.9-0.5,5.5-2,7.6-3.3c-0.8-0.9-2.2,0.5-3.7,0
			c4.5-1.6,7.2-1.2,11.9-2c-2.2,2.6-6.3,1.8-9,3.7c-2.3,1.6-2.3,3.8-4,6c-0.7,0.8,2-4.5,2.7-5.3c-2.6,0-3.7,1.5-6,2
			c-0.5,2-0.3,4.9,0,7c1-1.8,1-4.5,2-6.3c-4.4,27.9-6.5,61-9.6,91.9c4-18.1,4.9-41.3,7-60.8c-1.4,23.2-1.8,49.1-6,70.4
			c0.7-8.1,1.8-15.9,2.3-24.2c-2.3,8.4-2.2,19-4.3,27.6c-0.5-2.4,0.9-4.6,0-6.3c-1.8,0.9-2.2,5.7-4,7.6c-4.4,4.8-13.3,4-21.9,3.7
			c5,4,15,4,19.9,0c-0.8,1.4-2.8,1.7-3.7,3c4.1-0.1,6.9-6,8.3-5.6c1-0.1-1,2.6-1.3,3c-2.7,3-9,6.2-15.3,6.3
			c-6.6,0.1-15.2-3-16.9-8.6c3.9,5.9,13.9,9.3,23.2,6.7c-11.3-0.1-19.3-3.5-22.9-11.3c0.9,0.2,0.7,1.5,1.7,1.7
			c-3.3-8.4-0.9-20.2,0-31.9c1.3-16.2,2.4-32.6,3.7-48.8c0.6-8.5,2.5-17.3,1.7-24.2c-1.7-15.3-30-5.4-44.5-7.3
			c0.3,2.1,2.1,2.8,4.3,3c-6,1.1-8.1-4.4-10.3-8.3c0.3,12.2,17.6,10.3,31.2,10.3c-6-3.1-14.2-3.9-23.6-3.7
			c12.8-3.6,21.9,4.5,35.2,3.7c-1.4-3.1-6.3-2.7-10.3-2.3c5.9-3.2,11.3,1.4,14.6,4c-0.7,1.2-2.5-1.6-2,1c0.1,1.9-0.6-2.6-2.3-2
			c0.7,6.4,0.2,15.8-2,21.3c0.2-5.7,2.4-14,1-21.3c-2.3-1-5,0.2-7.6,0c0,0.4,0.6,0.3,1,0.3c-8.2,2.7-19.4,0.4-30.2,1
			c6.4-1.7,16.3,0.2,23.2-1c-8.1-0.2-19,0.1-26.9-1.3c1.1-0.8,3.7-0.1,5.3-0.3c-6.4-1.6-11.7-13.1-3-15.9c0,1.6-4.8,2.8-2.7,5.6
			c2.8-0.3,3.6-2.7,6-3.3c0.2,0.7-0.9,1,0.3,1c33-1.5,66.5-2.3,99.2-4c-30.5,0.2-64.3,0.1-94.6,1.7c22.8-4.3,50.2-1.4,77.7-2.7
			c13.8-0.6,23.1,0.9,35.2,0.3c3.9-0.2,8.3-0.3,11,1c0.3-3.1-3.7-2.5-7.6-2.7c-37.5-1.7-86.7-1.8-121.1,1.3
			c38.8-4.1,83.2-4.1,124.5-3c0.1,0.7-0.5,0.6-1,0.6c0.4,0.7,2.3,0.1,3.3,0.3c-2-1.9-4.2-3.5-7.3-4.3c4.4-0.8,6.5,3.7,10.3,4.6
			c0.3-1.9-5.9-3.6-5.3-4.6c3.4,1.1,5.2,3.7,8.3,5C365.8,240.7,370.5,245.4,367.6,248.8z M364.9,244.2c2-0.9,1.2-4.5,0-5.6
			c-0.5,0-1.1,0-1.7,0C363.5,240.7,365.4,241.3,364.9,244.2z M232.5,253.1c-2.2-0.9-1.4-4.7-3.3-6
			C227.6,249,230.9,253.3,232.5,253.1z M360.6,247.8c-7,0.1-19.3,1.6-27.6,1.3c-0.3,0-0.2,0.4,0.3,0.3c8.1,0.2,17.3,1.2,23.9-0.6
			c1.4,0.2,1.7-0.5,3-0.3C361.4,247.6,362.1,247.8,360.6,247.8z"/>
		<path class="st1" d="M550.5,247.8c0.1,1.5,4.2,4.5,4.6,7.3c0.3,2.1-0.9,4.2-1.3,6c-1,4.3-1.8,7.6-4,11c-1.8,2.7-4.8,4.8-6.7,8.3
			c-1.9,3.6-3.2,7.8-5,11.6c-5,10.5-11.3,22.9-15.6,33.5c7.3-15.1,15-29.6,22.6-44.5c-8.8,21.4-21.9,41.4-29.9,64.7
			c1.7-12.1,7.5-23.3,12.6-34.2c5.1-10.9,10.3-21.8,15.3-32.6c-9.1,15.2-19.5,34.9-27.6,53.8c-1.2,2.7-2.4,6.3-3.7,10
			c-1.7,5.1-5.7,13.6,1.3,14.6c7.1,1,19.4-1.5,27.6-1c-7.9-1.6-17.8,0.3-26.9-0.3c12.9-1.5,29.7-1.9,43.2-0.6
			c-4.1,0.8-9.6,0.1-14.3,0.3c2.8,1.1,7.2,0.5,10.6,1c0,0.9-2.3-0.3-2.3,0.6c2,1.2,4.1-0.2,6.3,0.6c3.3,1.2,6.5,9.5,3,11.3
			c0.3-0.9,2.2-3.6,0.3-5.3c-1.1,5.5-9.9,4-17.9,4c-23.7,0-49.4,1.1-70-1c2.7,2.7,8.6,2.7,14.3,3c7.9,0.3,16.8,0,24.6,0.3
			c0.4,0.6-3.2,0.1-4,0.6c13.2,1.3,29.2,1,44.5,1c1.9,0,6.7,0.5,7,0.3c-1.7,0.9-4.8,0.3-4.6,0.3c-0.5,0-2.8-0.1-6.7,0
			c-8.2,0.3-15,0.8-24.6,1c3.9,1.6,13.2-0.1,17.3,1c-19.2,0.5-39.1,0.3-58.1,1c-0.8-0.2-2.4,0.4-2.7-0.3c0.9,0,1.8,0,2.7,0
			c1.9,0.1,3.4-0.1,5-0.3c-4.7-0.7-10.5-0.3-14.9-1.3c16.4,0.1,35.3,0.8,51.8-0.6c-18.6-2.3-42.7,0.9-58.1-4.6
			c1.3-3-1.7-4.5-1.3-7.6c-0.5,0.6-1,1.2-1,2.3c2.6-15,10.8-28.1,16.6-41.8c-5.5,11.7-11.7,22.5-16.3,35.2c-0.3-4.2,2.5-7.8,4-11.6
			c3-7.6,5.8-15.3,9-22.9c5.1-12,8.8-25.2,16.6-35.9c-1.5,4.2-5.4,9-7,14.3c1.5-2,2.5-4.3,3.7-6.7c0.7,0.1,0,1.4-0.3,1.7
			c5.5-8.8,11-20.4,16.9-29.9c-6.7-4.6-20-0.7-30.2-1.7c4.3,3.1,11.1,3.7,16.9,5.3c-7.6,0.1-14.8-3.2-20.9-5.6c-0.7-0.1,0,0.9,0.3,1
			c-1.2,0.5-1.6-2.6-3.3-2.7c0.1,9.3,12.8,6,20.6,7.6c-8.6,0-22.2,2.3-21.6-8c-0.6-1.6-2.9-3-1.7-5.3c0.3,0.8,0,3.5,2,3.7
			c1.3-0.6-0.2-2.3,0.6-3.7c1.7-3,5.6-3.9,9.6-4.6c-0.5,0.6-1.9,0.5-2.3,1.3c20.2-0.9,36.7-0.9,53.4-2.7c1.3-0.1,7.3-0.3,3,0.3
			c-12.5,2-30.1,1.5-43.5,3c10.2,0.8,20.9,0.1,31.5-0.3c9.5-0.4,21-1.8,27.9,0.6c0.1-0.8-0.6-0.7-0.3-1.7c2,0.5,1.5,3.6,3.3,4.3
			c0-1.2,0-2.4,0-3.7c-1-1.3-3.7-1-6-1c0.2-1.7,3.3-0.7,5-1C551.6,249.4,550.5,249.1,550.5,247.8z M510.3,342.1
			c-0.9,3-2.2,5.6-2,9.6c0,0.4,0.3,0.2,0.6,0C509,348.2,510.8,344.9,510.3,342.1z M483.1,254.8c1,0,5.1-0.4,3.7-0.6
			c-5.7,0-14.1-2.3-16.3,2.3c0.2,1.1-0.5,3.2,0.6,3.3C471,253.6,477.4,255.2,483.1,254.8z M553.5,259.1c0.7-1.3,1.2-4.5-0.3-5.3
			C553.7,255.9,552.1,258.1,553.5,259.1z M547.8,268.7c1.9-3.4,5.4-8.1,2.7-11.9c-4.4,12.3-12.6,22.5-16.3,34.5
			c3.1-5.7,5.8-11.6,9-17.3c0,2.1-1.9,4.1-1.7,5.3C543.4,276.2,545.8,272.5,547.8,268.7z M548.8,268.7c1-2.2,3.4-4.8,3-7.3
			C551.1,263.9,548.7,266.5,548.8,268.7z M506,270.4c-12.6,22.1-23.2,48.1-33.2,71.7c10.5-21.7,21.3-44.4,31.5-65.7
			c1.3-2.8,3.9-6.5,2.7-10C506.8,268.2,504,271.2,506,270.4z M491.7,296.6c2.6-5.6,6.4-11.8,8.3-16.9
			C497.2,285,493.3,291.1,491.7,296.6z M545.2,277.1c1.7-2.5,4.3-5.8,4.6-8.6C548.1,270.9,544.8,273.6,545.2,277.1z M522.6,316.2
			c1.1-2.7,4.4-8.2,4.3-9.3c0,0.1,0,0.2,0,0.3C525.3,309.7,522.7,314.5,522.6,316.2z M473.1,334.5c3.5-8.1,7.8-15.4,10.6-24.2
			C479.4,317.3,475.6,326.7,473.1,334.5z M481.1,319.9c0.9-2.2,3.3-6.4,3-7.6C483.1,314.4,481,318.9,481.1,319.9z M512.7,338.1
			c-0.1,0.1,2.4-4.4,2-5.6C514,334.4,512.9,335.9,512.7,338.1z M471.8,368c-1.4-1.9-4.6-5.4-4.6-10c0-1.5,1.4-6.4,0.6-5.3
			C464.8,357.5,464.1,368,471.8,368z M540.5,357.7c-2,0-4,0-6,0c-1.8,0.2-4.4-0.4-5.6,0.3C532.7,357.8,537.3,358.5,540.5,357.7z"/>
		<path class="st1" d="M437.6,375c-4.6-2.2-12.9-0.5-15.3-5c1,0.3,3.1,2.5,5.6,2.3c0.4-0.9-1.6-2.2-2-3.3c0.1-0.6,1.1,0.4,1-1
			c0-1-1.6-0.4-2-1c-0.7,0-0.1,1.2-0.3,1.7c-1.2-0.5-0.1-3.2-1.7-3.3c-1,0,0.4,2.5-1,2c-1.7-8.7-0.5-20.3-2-29.2
			c0.6,0.4,0.2,2,0.6,2.7c0.9-7.5,0.7-16.4,2.7-22.9c-1.4,11.9-1.6,27.9,0.3,40.5c0.4,2.9,0.3,6.7,2.7,7.6
			c0.7-9.5-1.5-21.7-1.3-32.9c-0.3-0.9-0.7,1-1.3,0c0.5-5.5,4.2-16.4-1-19.6c-6.8,7.8-13,16.2-15.9,27.9c-0.4-0.1-0.3-0.8-0.3-1.3
			c-4.4,7.8-7.9,16.7-11.9,24.9c-4.4-1-6.2,5.5-9.3,8c-1.5-0.5-3-0.2-4.6,0c-0.2,0.6,1.1,2.4,2,3c-2-2-7.3-6-9.6-9.6
			c-0.8-1.3,0.8,0,0.6,0.3c0.4-1.3-5.8-10-7-11.9c-6.9-12-13.5-26.9-19.9-37.8c-4.2,2-7.5,11-8,17.9c-0.1,2.8,0.4,5.7,0.3,8.6
			c-0.3,7.3-2,12.7-2.7,19.9c-0.4,5.4-6.3,7.8-12.6,7c-1.2-0.1-2.6-1.4-2.3-4c0.9,1.3,1.2,3.3,3.7,3c-1.5-2.3-2.6-4.6-2-8.3
			c0.4-2.6,0.2-5.8,0.3-8.6c0.7-16,1.3-35.4,1.3-51.8c-1.9,19.9-1.5,42.1-4,61.4c-1.1-1,0-3.1,0-4.6c0.7-16.3,1.4-36.7,2.3-54.5
			c-2.5,19.1-5.2,37.9-5.6,59.1c-1.6-10.6,1-22.6,1.7-33.2c-0.2-0.8-0.9-1.3-1.3-2c-1.9-17.3,1.6-34.1,4.6-48.5
			c-1.5,14.4-6.8,32.6-3.7,49.5c3.3-17.8,4.2-37.8,8-55.1c0.7,0,0.1,1.4,0.3,2c0.5-0.4,0.6-1.1,0.6-2c-1.6,9.8-2.2,23.4-2,36.2
			c2.8-15.8-2.3-39.5,11-44.8c-1.9-0.6-4.9,0.6-5.6,2.3c-0.9-1.5-2.7,0.4-3.3,1.3c1.3-4.8,9.8-5.3,16.3-6
			c-11.1-4.2-21.1,2.9-23.2,11.9c1.7-6.6,5.9-13.6,14.3-14.6c0.9,0.2-0.2-1.6,0.6-1.3c6.2-0.9,11.1,2.4,16.3,3.7
			c0.3-2.1,4.4,1.4,6,2.3c0.5-0.8-1.2-2.1-1.3-3.3c2.4,2.8,3.9,6.5,6,9.6c-1.4-2-3.2-3.7-5.3-5c3.4,9.2,10.9,17,15.6,25.9
			c-0.1,0.8-0.9-0.3-1-0.6c3.3,8,9.1,16.4,12.3,25.6c-6.7-11.8-12.3-24.7-19.6-35.9c2.3,5.7,5.5,11.6,8.6,17.9
			c3,5.9,5.4,13.3,9,17.6c0.6,0.7,1.9,1.2,2.3,1.7c2.7,2.4,4.2,5.7,9,4.6c8.2-17.4,16.8-34.6,24.9-52.1c0,3.2-2.6,6.5-3.7,9.6
			c2.7-2.5,5.6-7.7,8.6-11c-0.5,0.4-1.4,0.4-1.7,1c0.4-2.5,5-3.6,6.3-6.3c-0.7,0.1-2.9,1.5-3.7,2.7c3.5-7,11.6-11.4,21.3-10.3
			c6.2,0.7,12.5,5.7,14.3,11c0.1,0.2,0.3,1.1,0.3,1c0.4,4.4,2.3,10,2,14.3c-0.6,8.7-2.5,17.7-1.3,27.6c1.2-2.4,0.2-6.9,1-9.6
			c0.1-1.2-0.3-4.7,0.3-4.3c0,1.7,0,3.3,0,5c-1.1,8.7-0.2,16.8-0.6,24.9c-0.1,2.3-1.1,4.6-1.3,7c-0.4,6,0.3,12.6,0.3,18.6
			c-1.4-1.1,0-5-1-6.7c-1,4.7-0.8,11.7-0.3,16.9c0.4,0.5,1.6-1,1.7-2c1.5,2.7-3.8,3.7-1.7,6c-2.5,0.1-4.9,2.7-6,5.3
			c-0.6-0.2,0-0.6,0-1c-1.3,0-3.3,2-4.3,3.3c-7.3-0.3-14.9,7.1-23.2,4.6c-0.9-0.2-3.1-2.3-2.3-2.7c0.3,1.1,1.6,1.2,2.3,2
			C430.5,376.9,434.2,376,437.6,375z M433.3,259.1c3.1,0.3,4.6-1.7,7-2c9.5-1.2,15.5,7,19.6,12.3
			C458.3,259.2,443.1,251.9,433.3,259.1z M457.2,268.7c-2.4-6.5-8.7-10.8-16.6-10.6C449.1,258.7,452.7,264.2,457.2,268.7z
			 M336.1,259.1c2.5,0,4.7,0.1,6.7,0.6C341.8,258.6,337.4,257.7,336.1,259.1z M429.3,261.1c1.1-1,2.9-1.3,3.7-2.7
			C431.5,258.9,429.2,260.2,429.3,261.1z M429.3,263.8c3.5-1.4,7.6-4.1,12.3-4c3.5,0.1,5.5,2.6,8.3,2.7
			C445.7,257.8,431.1,258.1,429.3,263.8z M440,261.4c2.1-0.1,3,1,5.3,0.6C444.9,260.7,440.8,260.1,440,261.4z M435.3,262.5
			c-9.4,2.7-12.8,10.8-17.3,18.6c-6.9,12-15.2,25-18.9,37.8c5.9-7.3,10.7-16.9,15.9-26.9c4.4-8.3,9.2-21.8,16.3-26.9
			c1-0.8,5.1-2.3,4.3-2.7C435.5,262.5,435.4,262.5,435.3,262.5z M356.3,265.1c0-1.2-2-2.2-2.7-1.7
			C354.6,264,355.3,264.7,356.3,265.1z M460.5,291.7c0.8-8.2,2.2-18.2-2.7-22.9C459.4,275.7,458.5,285.1,460.5,291.7z M420.7,273.7
			c-0.1-0.2-3.4,3.9-3,5.3C418.6,277.1,419.8,275.6,420.7,273.7z M410.8,289c0.7-2.4,3.3-4.7,3.3-6.7
			C413,284.4,410.6,286.8,410.8,289z M458.9,312.2c0.7-7.7,1.3-18.1-0.3-25.2C458.7,295.3,458.1,304.5,458.9,312.2z M394.5,321.5
			c2.9-3.9,5.6-9.9,7-14.3C398.9,311.7,396.7,316.7,394.5,321.5z M459.5,317.6c1.3-0.1,0.6-5.4,0.3-5
			C460.1,314.5,459.3,315.5,459.5,317.6z M419,316.2c0.7-0.8,1.5-1.5,2-2.7C419.8,313.7,418.7,315.7,419,316.2z M410.1,325.2
			c-7.2,13.5-14.5,27.6-20.9,40.2c0.8-0.6,1.2-2.8,2.3-2c0,0.5-1.4,1.5,0,1.3c5.1-7.6,9.6-16.5,14-25.2c2.2-4.4,4.1-9.2,6-13.6
			c2-4.7,5-7.8,7.6-11.9C414.4,315.7,412.3,321,410.1,325.2z M356.3,328.2c-1.7-2.7-3.5-11.5-8-12.9c-5.7-1.9-9.3,3.5-10,8
			c-1.2,8-0.7,21.2-1,27.6c1.8-13.1-0.4-30.3,9.6-35.2c7.8,15.2,17.4,31.5,26.2,46.8c-5.1-12.8-13-24.6-18.3-36.2
			C355.3,326.9,355.8,327.6,356.3,328.2z M426.7,320.5c0-1.5,0-2.9-0.6-3.7C426.3,318,425.3,320.5,426.7,320.5z M459.9,323.5
			c-0.2-1.8,1-3.8,0-5.3C459.5,319.4,459.2,322.4,459.9,323.5z M388.5,325.5c1.3-0.7,3-1.2,4-2.3c-3.7-0.4-6.2-2-8.3-4
			C385.3,321.6,386.1,324.4,388.5,325.5z M396.8,324.9c0.8-1.7,3-3.9,2.7-5.6C398.6,320.9,396.2,322.8,396.8,324.9z M392.8,327.8
			c2.4-0.2,3.3-3.6,3-5.3C394.8,324.2,393.7,326,392.8,327.8z M425.7,332.2c0.5,2,0.2,4.8,0.3,7.3c0.9-4.4,0.9-11.4,0.3-16.3
			C425.8,325.9,426.2,329.5,425.7,332.2z M388.5,326.2c1,0.6,1.7,1.6,3.3,1.7c0.2-1,2.3-3.3,0.6-4
			C391.5,325,389.6,325.2,388.5,326.2z M423.7,365c-0.5-2.8-0.8-5.8-1.7-8.3C422.4,359.7,421.1,364.3,423.7,365z M455.5,363.7
			c1,0,2.3-1.5,1.3-2.3C456.6,362.3,455.6,362.5,455.5,363.7z M428,367c1.2-0.4,1.9,1.4,2.7,0.3c-1.2-0.6-1.7-1.9-2.7-2.7
			C428,365.4,428,366.2,428,367z M377.6,368.3c-0.3,3.2,4.4,5.5,6,2.7c1.7,1.1,3.9-2.6,5-4.3C386.2,368.6,380.9,371.5,377.6,368.3z
			 M437.3,370c3.7,1.1,8.1,2,11-0.3c0.5,1.1-1.9,0.9-0.6,1.7c2.5-0.5,4.2-2.9,6.3-4.6C449.6,369.7,444.3,369.5,437.3,370z
			 M428.4,371.3c3.1,1.8,11,1.8,14.9,0.6c-6-0.5-10.3-2.8-15.6-4C427.5,369.5,427.9,370.4,428.4,371.3z"/>
		<path class="st1" d="M340.4,345.8c-0.4,0-0.3,0.6-0.3,1c-0.6-7.6,1.7-15.1,2-22.9c0.8,11.6-1.4,26.7-0.6,39.5
			c0.2-2.1-0.5-3.2-0.3-5.3c-1.2,3.3-1,7.8-2,11.3c-0.3,0-0.2-0.4-0.3-0.6C340.1,361.9,340.3,353.9,340.4,345.8z"/>
		<path class="st1" d="M567.1,360.7c0.5-0.5,0.9,3.7-0.6,4.6C566.8,363.7,567.7,362.4,567.1,360.7z"/>
	</g>
</g>
</svg>
