<?xml version="1.0" encoding="utf-8"?>
<!-- Generator: Adobe Illustrator 18.0.0, SVG Export Plug-In . SVG Version: 6.00 Build 0)  -->
<!DOCTYPE svg PUBLIC "-//W3C//DTD SVG 1.1//EN" "http://www.w3.org/Graphics/SVG/1.1/DTD/svg11.dtd">
<svg version="1.1" id="Layer_1" xmlns="http://www.w3.org/2000/svg" xmlns:xlink="http://www.w3.org/1999/xlink" x="0px" y="0px"
	 viewBox="0 0 40 40" enable-background="new 0 0 40 40" xml:space="preserve">
<rect fill="#CC3732" width="40" height="40"/>
<path fill="#FFFFFF" d="M29.4,15.2h-2.3v2.2h-1.1v-2.2h-2.3v-1.1h2.3v-2.2h1.1v2.2h2.3V15.2z M22.9,24.3c0,1.7-1.6,3.7-5.5,3.7
	c-2.9,0-5.3-1.2-5.3-3.2c0-1.6,1-3.6,5.8-3.6c-0.7-0.6-0.9-1.3-0.4-2.2c-2.8,0-4.2-1.6-4.2-3.6c0-2,1.5-3.8,4.6-3.8
	c0.8,0,4.9,0,4.9,0l-1.1,1.1h-1.3c0.9,0.5,1.4,1.6,1.4,2.7c0,1.1-0.6,1.9-1.5,2.6c-1.5,1.1-1.1,1.8,0.5,2.9
	C22.4,22.1,22.9,23,22.9,24.3z M19.8,15.6c-0.2-1.7-1.4-3.1-2.7-3.1c-1.3,0-2.2,1.3-2,3c0.2,1.7,1.5,2.9,2.8,2.9
	C19.3,18.4,20.1,17.3,19.8,15.6z M21.2,24.5c0-1.4-1.3-2.7-3.5-2.7c-2,0-3.7,1.2-3.7,2.6c0,1.5,1.4,2.7,3.4,2.7
	C20,27.1,21.2,26,21.2,24.5z"/>
</svg>
