<?xml version="1.0" encoding="utf-8"?>
<!-- Generator: Adobe Illustrator 18.0.0, SVG Export Plug-In . SVG Version: 6.00 Build 0)  -->
<!DOCTYPE svg PUBLIC "-//W3C//DTD SVG 1.1//EN" "http://www.w3.org/Graphics/SVG/1.1/DTD/svg11.dtd">
<svg version="1.1" id="Layer_1" xmlns="http://www.w3.org/2000/svg" xmlns:xlink="http://www.w3.org/1999/xlink" x="0px" y="0px"
	 viewBox="0 0 40 40" enable-background="new 0 0 40 40" xml:space="preserve">
<rect fill="#5FA9DD" width="40" height="40"/>
<path fill="#FFFFFF" d="M28,14.8c-0.6,0.3-1.2,0.4-1.9,0.5c0.7-0.4,1.2-1.1,1.5-1.8c-0.6,0.4-1.4,0.7-2.1,0.8c-0.6-0.6-1.5-1-2.5-1
	c-2.2,0-3.8,2-3.3,4c-2.8-0.1-5.3-1.4-6.9-3.4c-0.9,1.5-0.5,3.4,1,4.4c-0.6,0-1.1-0.2-1.5-0.4c0,1.5,1.1,3,2.7,3.3
	c-0.5,0.1-1,0.2-1.5,0.1c0.4,1.3,1.7,2.3,3.1,2.3c-1.4,1.1-3.2,1.6-5,1.4c1.5,0.9,3.3,1.5,5.1,1.5c6.2,0,9.8-5.2,9.5-9.8
	C27,16,27.6,15.4,28,14.8z"/>
</svg>
