<?xml version="1.0" encoding="utf-8"?>
<!-- Generator: Adobe Illustrator 18.0.0, SVG Export Plug-In . SVG Version: 6.00 Build 0)  -->
<!DOCTYPE svg PUBLIC "-//W3C//DTD SVG 1.1//EN" "http://www.w3.org/Graphics/SVG/1.1/DTD/svg11.dtd">
<svg version="1.1" id="Layer_1" xmlns="http://www.w3.org/2000/svg" xmlns:xlink="http://www.w3.org/1999/xlink" x="0px" y="0px"
	 viewBox="0 0 40 40" enable-background="new 0 0 40 40" xml:space="preserve">
<rect fill="#CD2227" width="40" height="40"/>
<path fill="#FFFFFF" d="M15,11.4h1l0.7,2.6l0.6-2.6h1l-1.2,3.9V18h-1v-2.7L15,11.4z M18.4,16.8c0,0.9,0.4,1.3,1.3,1.3
	c0.7,0,1.3-0.5,1.3-1.3v-2.4c0-0.8-0.6-1.3-1.3-1.3c-0.8,0-1.3,0.5-1.3,1.3V16.8z M19.3,14.5c0-0.3,0.1-0.5,0.4-0.5
	c0.3,0,0.4,0.2,0.4,0.5v2.3c0,0.3-0.1,0.5-0.4,0.5c-0.2,0-0.4-0.2-0.4-0.5V14.5z M23.4,13.2v3.7c-0.1,0.1-0.4,0.4-0.5,0.4
	c-0.2,0-0.2-0.1-0.2-0.3v-3.7h-0.9v4.1c0,0.5,0.1,0.9,0.6,0.9c0.3,0,0.7-0.1,1-0.6V18h0.9v-4.9H23.4z M22.1,23.2
	c0.1,0.1,0.1,0.2,0.1,0.4v2.4c0,0.1,0,0.3-0.1,0.3c-0.1,0.1-0.3,0.1-0.4,0c-0.1,0-0.1-0.1-0.2-0.2v-2.9c0.1-0.1,0.1-0.1,0.2-0.1
	C21.8,23,22,23,22.1,23.2z M25,23.1c-0.3,0-0.4,0.2-0.4,0.5v0.5h0.8v-0.5C25.4,23.3,25.3,23.1,25,23.1z M27.6,26.5
	c0,1.1-0.9,2.1-2.1,2.1H14.9c-1.1,0-2.1-0.9-2.1-2.1v-5.3c0-1.1,0.9-2.1,2.1-2.1h10.6c1.1,0,2.1,0.9,2.1,2.1V26.5L27.6,26.5z
	 M16.3,21.6h1v-0.9h-3v0.9h1V27h1V21.6L16.3,21.6z M19.8,22.4h-0.9v3.5c-0.1,0.1-0.3,0.3-0.5,0.3c-0.2,0-0.2-0.1-0.2-0.3v-3.6h-0.9
	v3.9c0,0.9,0.6,0.9,1.1,0.7c0.2-0.1,0.3-0.2,0.5-0.4V27h0.9V22.4z M23.1,23.5c0-0.6-0.2-1.2-0.8-1.2c-0.3,0-0.6,0.2-0.8,0.4v-2h-0.9
	V27h0.9v-0.4c0.2,0.3,0.5,0.4,0.8,0.4c0.6,0,0.8-0.4,0.8-1V23.5z M26.2,23.6c0-0.8-0.4-1.4-1.2-1.4c-0.8,0-1.3,0.6-1.3,1.4v2.1
	c0,0.8,0.4,1.4,1.2,1.4c0.9,0,1.3-0.5,1.3-1.4v-0.3h-0.9v0.3c0,0.4,0,0.6-0.4,0.6c-0.3,0-0.4-0.3-0.4-0.6v-0.9h1.6V23.6L26.2,23.6z"
	/>
</svg>
