<?xml version="1.0" encoding="utf-8"?>
<!-- Generator: Adobe Illustrator 18.0.0, SVG Export Plug-In . SVG Version: 6.00 Build 0)  -->
<!DOCTYPE svg PUBLIC "-//W3C//DTD SVG 1.1//EN" "http://www.w3.org/Graphics/SVG/1.1/DTD/svg11.dtd">
<svg version="1.1" id="Layer_1" xmlns="http://www.w3.org/2000/svg" xmlns:xlink="http://www.w3.org/1999/xlink" x="0px" y="0px"
	 viewBox="0 0 40 40" enable-background="new 0 0 40 40" xml:space="preserve">
<rect fill="#3F709C" width="40" height="40"/>
<path fill="#FFFFFF" d="M25.7,18.9h-1.2c0.1,0.3,0.1,0.7,0.1,1.1c0,2.4-1.9,4.3-4.3,4.3s-4.3-1.9-4.3-4.3c0-0.4,0.1-0.7,0.1-1.1H15
	v5.9c0,0.3,0.2,0.5,0.5,0.5h9.6c0.3,0,0.5-0.2,0.5-0.5V18.9L25.7,18.9z M25.7,15.2c0-0.3-0.2-0.5-0.5-0.5h-1.6
	c-0.3,0-0.5,0.2-0.5,0.5v1.6c0,0.3,0.2,0.5,0.5,0.5h1.6c0.3,0,0.5-0.2,0.5-0.5V15.2z M20.3,17.3c-1.5,0-2.7,1.2-2.7,2.7
	c0,1.5,1.2,2.7,2.7,2.7c1.5,0,2.7-1.2,2.7-2.7C23,18.5,21.8,17.3,20.3,17.3 M25.7,26.9H15c-0.9,0-1.6-0.7-1.6-1.6V14.7
	c0-0.9,0.7-1.6,1.6-1.6h10.7c0.9,0,1.6,0.7,1.6,1.6v10.7C27.3,26.2,26.6,26.9,25.7,26.9"/>
</svg>
