<!-- Generator: Adobe Illustrator 18.1.1, SVG Export Plug-In  -->
<svg version="1.1"
	 xmlns="http://www.w3.org/2000/svg" xmlns:xlink="http://www.w3.org/1999/xlink" xmlns:a="http://ns.adobe.com/AdobeSVGViewerExtensions/3.0/"
	 x="0px" y="0px" width="279.81px" height="113.667px" viewBox="0 0 279.81 113.667" enable-background="new 0 0 279.81 113.667"
	 xml:space="preserve">
<defs>
</defs>
<path fill="#CF0000" d="M121.167,0H3.833C1.716,0,0,1.716,0,3.833C0,5.95,1.716,7.666,3.833,7.666h30.052L33.868,7.72
	c0.213,0,14.225-1.385,14.118,11.188L48,18.906v81.761c0,6.627,7.127,13,13.755,13h1.587c6.627,0,13.658-6.373,13.658-13V18.034
	C77.542,6.407,90.887,7.72,91.095,7.72l-0.018-0.053h30.09c2.117,0,3.833-1.716,3.833-3.833C125,1.716,123.284,0,121.167,0z"/>
<path fill="#CF0000" d="M188.06,22.508h-3.874c-4.268,0-8.005,2.234-10.133,5.591c-0.593,0.707-1.142,1.537-1.605,2.465
	l-12.526,25.083c-2.533,4.895-6.824,13.16-10.111,19.361c-4.058,7.653-8.726,1.244-10.375-1.435
	c-1.002-1.63-4.302-7.381-6.009-10.365l-18.987-36.7c-5.342-9.921-15.629-7.5-19.97-5.088c-4.427,2.459-6.784,7.505-6.784,13.11
	v73.291c0,3.141,2.546,5.687,5.688,5.687c3.141,0,5.688-2.547,5.688-5.687c0,0,0-25.41,0-33.392s8.034-10.602,11.58-4.458
	c3.545,6.144,20.972,38.961,20.972,38.961c1.723,2.562,3,3.787,4.05,4.098c0.064,0.041,0.126,0.087,0.195,0.121
	c2.055,1.027,5.536,0.357,8.092-4.219l16.553-32.809l2.808-5.564c1.24-1.815,2.248-3.984,5.685-3.984
	c3.956,0,5.229,2.545,5.214,6.996l0.014,26.937c-0.126,7.678,5.338,13,11.965,13h2.874c6.627,0,11-6.373,11-13v-66
	C200.06,27.88,194.687,22.508,188.06,22.508z"/>
<path fill="#CF0000" d="M276.277,104.841h-27.381c-0.357-0.023-0.735-0.037-1.146-0.037c-6.169,0-7.277-2.703-8.109-4.645
	c-0.832-1.94,0.791-7.404,2.821-11.742c2.03-4.338,21.232-46.23,21.232-46.23c1.286-2.407,6.301-11.803,7.925-14.94
	c0.176-0.263,0.324-0.548,0.436-0.856c0.039-0.081,0.069-0.144,0.076-0.165c0.003-0.01-0.018-0.02-0.022-0.029
	c0.119-0.389,0.199-0.797,0.199-1.23c0-2.14-1.582-3.875-3.532-3.875h-57.436c-1.95,0-3.532,1.735-3.532,3.875
	c0,2.14,1.582,3.875,3.532,3.875h22.972c2.016,0.387,3.546,2.14,3.58,4.26v0.073l-0.103,1.076l-23.869,51.931
	c-0.944,1.873-2.095,4.156-3.049,6.064c-1.694,3.39-6.303,12.073-2.161,17.596c2.267,3.023,10.066,2.726,16.645,2.75h50.921
	c1.95,0,3.532-1.734,3.532-3.875C279.81,106.576,278.228,104.841,276.277,104.841z"/>
</svg>